<svg width="139" height="127" viewBox="0 0 139 127" fill="none" xmlns="http://www.w3.org/2000/svg">
<rect width="139" height="127" fill="white"/>
<g clip-path="url(#clip0_13_30)">
<path d="M60.5008 31.9709C60.5533 32.7582 60.6845 32.9419 61.2356 33.0206C62.6264 33.2043 62.6788 33.5454 63.02 41.2604C63.2037 45.2229 63.4136 50.8386 63.4923 53.7514L63.676 59.0784H64.2796C64.9094 59.0784 64.9094 59.0521 64.9094 56.1131C64.9094 54.5124 64.7782 48.713 64.6469 43.2548C64.437 35.5135 64.3058 33.1518 63.9909 32.6007C63.571 31.761 62.1803 31 61.1043 31C60.4746 31 60.4221 31.0787 60.5008 31.9709Z" fill="black"/>
<path d="M68.6357 33.9916C67.5598 34.2015 66.6675 34.4114 66.6151 34.4639C66.5626 34.5164 67.9009 34.5689 69.5803 34.5689C72.1258 34.5951 72.8868 34.6739 74.0939 35.1724C74.8811 35.4873 75.7209 35.9072 75.9308 36.0909C76.1407 36.2746 77.0329 36.5632 77.8989 36.7469C79.7358 37.1406 83.6195 38.3477 83.4883 38.4789C83.4359 38.5314 82.2812 38.3477 80.9167 38.059C77.4003 37.3505 77.3216 37.3767 78.3712 38.6626C78.8961 39.3186 79.2635 39.4236 82.6749 39.9222C84.7217 40.2108 87.7132 40.7881 89.3664 41.2079C90.9934 41.6278 92.3842 41.8902 92.4629 41.8377C92.6991 41.6278 89.7863 39.0824 87.9231 37.8753C83.672 35.1462 79.5259 33.8866 74.0939 33.7292C71.7584 33.6767 69.8952 33.7554 68.6357 33.9916Z" fill="black"/>
<path d="M45.8318 42.6774C37.5657 46.7711 30.7954 50.1825 30.7954 50.2612C30.7954 50.34 31.3465 50.1825 32.055 49.9201C32.7373 49.6577 39.5863 47.086 47.2488 44.2257L61.2355 39.0036V37.088C61.2355 36.0646 61.1568 35.1986 61.0519 35.2248C60.9207 35.2248 54.0716 38.5837 45.8318 42.6774Z" fill="black"/>
<path d="M70.63 40.9717C69.4229 41.0767 68.9505 41.2604 68.3995 41.8377L67.6647 42.5462L67.586 47.7421C67.5335 50.5761 67.5597 53.3053 67.6647 53.7514C67.7697 54.3024 68.1371 54.8535 68.6881 55.2734C69.5016 55.9032 69.764 55.9556 71.7584 55.8769C73.8839 55.7982 73.9102 55.7982 72.6506 55.5883C69.869 55.1684 69.5279 55.0372 68.8981 54.0925C68.2945 53.2003 68.2945 53.0691 68.3732 48.1094L68.452 43.0186L69.3179 42.2576C70.0002 41.6278 70.4201 41.4966 71.5485 41.4703C72.9393 41.4441 74.5662 41.0767 73.8315 40.9455C73.1229 40.8405 72.152 40.8405 70.63 40.9717Z" fill="black"/>
<path d="M78.8173 44.1733L80.0507 47.1386L83.3046 47.4535C86.7948 47.7946 91.0196 48.6081 92.6466 49.2642C93.5913 49.6316 93.6175 49.6316 92.8041 49.5266C90.521 49.1592 86.165 48.8181 85.2465 48.8968C84.3281 48.9755 84.538 49.0542 87.0834 49.7365C88.6841 50.1564 90.9409 50.8387 92.1218 51.2585C93.3026 51.6521 95.9793 52.4132 98.0261 52.938C100.099 53.4628 101.91 53.9876 102.041 54.1451C102.225 54.3025 101.989 54.3288 101.385 54.2238C99.6531 53.9089 94.6934 53.6465 94.4573 53.8564C93.9324 54.3288 94.5885 54.8274 95.9268 55.0111C97.7899 55.221 101.674 55.982 101.569 56.087C101.543 56.1394 99.968 56.087 98.1048 55.9558C95.0346 55.7721 93.9062 55.877 94.3523 56.3494C94.431 56.4281 96.1367 56.7168 98.1048 56.9792C100.073 57.2416 101.726 57.504 101.805 57.5827C101.884 57.6615 100.283 57.6615 98.2623 57.5827L94.5622 57.4253V59.131C94.5622 60.0757 94.7197 61.0204 94.9034 61.2828C95.1395 61.5977 96.1367 61.8601 98.6297 62.2537C106.423 63.4346 106.397 63.4083 99.758 63.4871L93.8012 63.5395L93.7225 64.5367L93.6438 65.5077L91.7544 65.5864C89.1827 65.6913 89.3139 66.1637 91.8856 66.1637C92.9877 66.1637 97.1077 66.3474 100.991 66.5573C104.901 66.7672 108.392 66.9509 108.811 66.9509H109.52V64.1431C109.52 60.9941 109.153 59.8657 107.604 58.265C107.132 57.7664 106.607 56.8742 106.423 56.2444C105.899 54.5125 104.744 53.4103 102.067 52.1245C100.755 51.4947 99.207 50.8387 98.6034 50.6812C97.6325 50.3926 97.475 50.2089 96.7928 48.6081C96.2942 47.4798 95.5594 46.4039 94.6672 45.4854C93.2764 44.0946 92.4892 43.701 92.8565 44.5669C92.9615 44.8294 93.119 45.2755 93.1714 45.5904C93.3026 46.1152 93.2239 46.1414 91.7544 45.9315C90.9147 45.8265 88.2905 45.4854 85.9025 45.1705C83.5146 44.8818 81.3365 44.5932 81.0479 44.5145C80.7592 44.462 80.0769 43.701 79.5259 42.8088C78.8961 41.7853 78.3712 41.2343 78.0563 41.2343C77.6102 41.2343 77.689 41.5492 78.8173 44.1733Z" fill="black"/>
<path d="M58.2178 42.7299C56.6433 43.3597 52.8645 44.908 49.8205 46.1413C44.8609 48.1357 41.0034 49.7102 33.4196 52.8329C32.055 53.384 31.294 53.7776 31.7139 53.7251C32.6586 53.5677 60.9731 45.5115 61.1568 45.3541C61.2093 45.2753 61.2355 44.4094 61.1831 43.386L61.1043 41.5491L58.2178 42.7299Z" fill="black"/>
<path d="M72.5456 46.1938C72.2832 46.3775 72.1783 46.8499 72.2045 47.7158C72.257 48.8967 72.2307 48.9229 71.8896 48.3456C71.6272 47.847 71.5222 47.8208 71.391 48.1357C71.2073 48.608 71.5747 50.0513 71.9946 50.5499C72.152 50.7598 72.6506 50.996 73.0705 51.0747C73.4903 51.1797 73.8315 51.3371 73.8315 51.4684C73.8315 51.9407 75.406 52.3343 76.2719 52.0457L77.1117 51.7833L76.062 51.757C74.3825 51.7045 74.1726 51.4421 74.7499 50.13C75.5372 48.4243 75.1698 46.8236 73.9102 46.2463C73.1492 45.9052 73.018 45.9052 72.5456 46.1938Z" fill="black"/>
<path d="M45.7006 53.384C37.5132 56.1656 30.8479 58.4486 30.9004 58.4748C30.9529 58.5536 33.1309 58.1074 42.0793 56.1918C51.2113 54.2499 59.8448 52.4393 60.527 52.3081C61.2355 52.2031 61.2355 52.1769 61.2355 50.2612C61.2355 48.8704 61.1306 48.3194 60.9207 48.3456C60.737 48.3719 53.8879 50.6286 45.7006 53.384Z" fill="black"/>
<path d="M57.5617 55.1421C55.6199 55.6669 48.9021 57.5038 42.6566 59.2095C36.4373 60.9152 31.3727 62.3585 31.4252 62.4372C31.5039 62.4897 32.7635 62.3585 34.2593 62.1223C35.7551 61.8861 38.1693 61.5187 39.665 61.3088C41.1346 61.0989 43.4963 60.7315 44.9133 60.5216C46.3041 60.3116 50.5028 59.6818 54.2553 59.1045C58.6639 58.4222 61.1306 57.9499 61.2618 57.7137C61.5504 57.2939 61.5767 54.4335 61.3143 54.2761C61.1831 54.1974 59.5036 54.591 57.5617 55.1421Z" fill="black"/>
<path d="M81.5727 54.5385L79.9982 54.9584L81.4415 55.2733C84.1444 55.8243 85.7713 57.1889 86.821 59.7606L87.4508 61.3088L90.2062 61.3875C91.7544 61.4138 92.9878 61.3875 92.9878 61.2826C92.9878 61.2038 92.6466 60.3904 92.2267 59.4981C90.5735 56.0605 88.2118 54.3286 85.0103 54.1974C83.8557 54.1449 82.5436 54.2761 81.5727 54.5385Z" fill="black"/>
<path d="M72.3882 59.472C68.1371 60.0231 58.7426 61.1777 55.2 61.5713C49.873 62.1486 31.7664 64.3529 31.1366 64.4841C30.6117 64.5891 30.533 64.7728 30.533 65.77V66.9508L52.917 66.8984L75.2747 66.8196L75.3535 64.7728C75.406 63.4607 75.3272 62.7522 75.1435 62.7522C74.8286 62.7522 74.7237 63.0146 74.4875 64.3792L74.3301 65.3763L69.4229 65.3501C64.7519 65.2976 64.5945 65.2976 66.4838 65.009L68.452 64.7203L65.4079 64.6416L62.3377 64.5629L61.9178 63.4607C61.3143 61.8862 61.3668 61.755 62.6263 61.5976C64.1746 61.3876 74.9861 60.128 75.2223 60.128C75.3272 60.128 75.406 59.8919 75.406 59.6032C75.406 59.3146 75.3272 59.1046 75.2223 59.1046C75.0911 59.1309 73.8315 59.2883 72.3882 59.472Z" fill="black"/>
<path d="M79.1585 59.8656C77.5315 60.8628 76.0358 64.6416 76.5868 66.3998C76.7443 66.9246 76.9017 66.9508 80.7855 66.9508H84.8529L85.0103 66.2686C85.3252 65.009 84.9579 62.3061 84.3281 61.3089C83.1472 59.4195 80.9167 58.7897 79.1585 59.8656ZM82.8848 60.994C84.1444 62.2536 84.7479 64.6416 83.882 64.9565C83.3309 65.1664 83.1734 64.9827 82.7798 63.5394C82.3862 62.2011 80.9691 60.6529 80.1294 60.6529C79.8408 60.6529 79.6571 60.5217 79.7358 60.3905C79.8145 60.233 80.3656 60.128 80.9691 60.128C81.8089 60.128 82.2025 60.3117 82.8848 60.994Z" fill="black"/>
<path d="M16.3626 64.9827C16.1789 65.1927 16.1002 65.6388 16.2052 66.0061C16.4676 67.082 18.0945 67.1083 18.357 66.0061C18.5669 65.2189 18.0683 64.5891 17.2811 64.5891C16.9662 64.5891 16.5463 64.7728 16.3626 64.9827Z" fill="black"/>
<path d="M20.8237 64.9827C20.3775 65.5338 20.6924 66.5834 21.3747 66.7671C22.162 66.9771 22.6343 66.7147 22.818 66.0061C23.0279 65.2189 22.5294 64.5891 21.7421 64.5891C21.4272 64.5891 21.0073 64.7728 20.8237 64.9827Z" fill="black"/>
<path d="M25.2847 64.9827C25.101 65.1927 25.0223 65.6388 25.1273 66.0061C25.3897 67.082 27.0166 67.1083 27.2791 66.0061C27.489 65.2189 26.9904 64.5891 26.2032 64.5891C25.8883 64.5891 25.4684 64.7728 25.2847 64.9827Z" fill="black"/>
<path d="M111.882 64.9827C111.698 65.1927 111.619 65.6388 111.724 66.0061C111.987 67.082 113.614 67.1083 113.876 66.0061C114.086 65.2189 113.587 64.5891 112.8 64.5891C112.485 64.5891 112.065 64.7728 111.882 64.9827Z" fill="black"/>
<path d="M116.343 64.9827C116.159 65.1927 116.08 65.6388 116.185 66.0061C116.448 67.082 118.075 67.1083 118.337 66.0061C118.547 65.2189 118.048 64.5891 117.261 64.5891C116.946 64.5891 116.526 64.7728 116.343 64.9827Z" fill="black"/>
<path d="M120.804 64.9827C120.62 65.1927 120.541 65.6388 120.646 66.0061C120.909 67.082 122.536 67.1083 122.798 66.0061C123.008 65.2189 122.509 64.5891 121.722 64.5891C121.407 64.5891 120.987 64.7728 120.804 64.9827Z" fill="black"/>
<path d="M26.6227 81.0501V72.2712H32.5382V73.8015H28.4788V75.8934H32.2339V77.4237H28.4788V79.5198H32.5554V81.0501H26.6227ZM41.3568 72.2712V81.0501H39.7537L35.9343 75.5247H35.87V81.0501H34.0139V72.2712H35.6428L39.4322 77.7923H39.5093V72.2712H41.3568ZM47.6528 74.796C47.6185 74.4502 47.4713 74.1816 47.2113 73.9901C46.9512 73.7986 46.5983 73.7029 46.1525 73.7029C45.8496 73.7029 45.5938 73.7458 45.3852 73.8315C45.1766 73.9144 45.0165 74.0301 44.9051 74.1787C44.7965 74.3273 44.7422 74.4959 44.7422 74.6845C44.7365 74.8417 44.7693 74.9789 44.8408 75.096C44.9151 75.2132 45.0165 75.3147 45.1451 75.4004C45.2737 75.4833 45.4223 75.5561 45.5909 75.619C45.7595 75.679 45.9396 75.7305 46.1311 75.7733L46.9198 75.9619C47.3027 76.0477 47.6542 76.162 47.9743 76.3049C48.2944 76.4478 48.5716 76.6235 48.8059 76.8321C49.0402 77.0407 49.2217 77.2865 49.3503 77.5694C49.4817 77.8523 49.5489 78.1767 49.5518 78.5425C49.5489 79.0797 49.4117 79.5455 49.1402 79.9399C48.8716 80.3314 48.483 80.6358 47.9743 80.853C47.4685 81.0673 46.8583 81.1745 46.1439 81.1745C45.4352 81.1745 44.8179 81.0659 44.2921 80.8487C43.7691 80.6315 43.3605 80.31 43.0661 79.8842C42.7746 79.4555 42.6217 78.9254 42.6075 78.2939H44.4035C44.4236 78.5882 44.5079 78.834 44.6565 79.0311C44.8079 79.2255 45.0094 79.3726 45.2609 79.4727C45.5152 79.5698 45.8024 79.6184 46.1225 79.6184C46.4368 79.6184 46.7097 79.5727 46.9412 79.4812C47.1756 79.3898 47.357 79.2626 47.4856 79.0997C47.6142 78.9368 47.6785 78.7497 47.6785 78.5382C47.6785 78.341 47.6199 78.1753 47.5028 78.0409C47.3885 77.9066 47.2198 77.7923 46.9969 77.698C46.7769 77.6037 46.5068 77.518 46.1868 77.4408L45.2309 77.2008C44.4907 77.0207 43.9063 76.7392 43.4776 76.3563C43.049 75.9734 42.8361 75.4575 42.8389 74.8088C42.8361 74.2773 42.9775 73.8129 43.2633 73.4157C43.5519 73.0185 43.9477 72.7084 44.4507 72.4855C44.9537 72.2626 45.5252 72.1511 46.1653 72.1511C46.8169 72.1511 47.3856 72.2626 47.8714 72.4855C48.3601 72.7084 48.7402 73.0185 49.0116 73.4157C49.2831 73.8129 49.4232 74.273 49.4317 74.796H47.6528ZM52.113 81.0501H50.124L53.1547 72.2712H55.5466L58.5729 81.0501H56.5839L54.3849 74.2773H54.3163L52.113 81.0501ZM51.9887 77.5994H56.6868V79.0483H51.9887V77.5994ZM59.6296 81.0501V72.2712H63.0932C63.7561 72.2712 64.322 72.3898 64.7906 72.627C65.2622 72.8613 65.6208 73.1942 65.8666 73.6257C66.1152 74.0544 66.2395 74.5588 66.2395 75.1389C66.2395 75.7219 66.1138 76.2234 65.8623 76.6435C65.6108 77.0607 65.2465 77.3808 64.7692 77.6037C64.2948 77.8266 63.7204 77.9381 63.046 77.9381H60.7269V76.4463H62.7459C63.1003 76.4463 63.3946 76.3977 63.629 76.3006C63.8633 76.2034 64.0376 76.0577 64.1519 75.8633C64.2691 75.669 64.3277 75.4275 64.3277 75.1389C64.3277 74.8474 64.2691 74.6017 64.1519 74.4016C64.0376 74.2016 63.8619 74.0501 63.6247 73.9472C63.3904 73.8415 63.0946 73.7886 62.7374 73.7886H61.4857V81.0501H59.6296ZM64.3706 77.055L66.5524 81.0501H64.5034L62.3687 77.055H64.3706ZM68.5843 81.1616C68.3014 81.1616 68.0585 81.0616 67.8556 80.8615C67.6555 80.6586 67.5555 80.4157 67.5555 80.1328C67.5555 79.8527 67.6555 79.6127 67.8556 79.4127C68.0585 79.2126 68.3014 79.1126 68.5843 79.1126C68.8586 79.1126 69.0987 79.2126 69.3044 79.4127C69.5102 79.6127 69.6131 79.8527 69.6131 80.1328C69.6131 80.3214 69.5645 80.4943 69.4673 80.6515C69.373 80.8058 69.2487 80.9301 69.0944 81.0244C68.9401 81.1159 68.77 81.1616 68.5843 81.1616ZM71.1466 81.0501V72.2712H73.0027V76.142H73.1185L76.2777 72.2712H78.5024L75.2446 76.202L78.541 81.0501H76.3205L73.9158 77.4408L73.0027 78.5553V81.0501H71.1466ZM80.9822 81.0501H78.9932L82.0239 72.2712H84.4158L87.4422 81.0501H85.4532L83.2541 74.2773H83.1856L80.9822 81.0501ZM80.8579 77.5994H85.556V79.0483H80.8579V77.5994ZM88.4988 81.0501V72.2712H91.9624C92.6254 72.2712 93.1912 72.3898 93.6599 72.627C94.1314 72.8613 94.49 73.1942 94.7358 73.6257C94.9844 74.0544 95.1087 74.5588 95.1087 75.1389C95.1087 75.7219 94.983 76.2234 94.7315 76.6435C94.48 77.0607 94.1157 77.3808 93.6384 77.6037C93.1641 77.8266 92.5897 77.9381 91.9152 77.9381H89.5962V76.4463H91.6152C91.9695 76.4463 92.2639 76.3977 92.4982 76.3006C92.7325 76.2034 92.9069 76.0577 93.0212 75.8633C93.1383 75.669 93.1969 75.4275 93.1969 75.1389C93.1969 74.8474 93.1383 74.6017 93.0212 74.4016C92.9069 74.2016 92.7311 74.0501 92.4939 73.9472C92.2596 73.8415 91.9638 73.7886 91.6066 73.7886H90.3549V81.0501H88.4988ZM93.2398 77.055L95.4217 81.0501H93.3727L91.2379 77.055H93.2398ZM102.242 75.1089C102.182 74.9003 102.097 74.716 101.989 74.5559C101.88 74.393 101.747 74.2559 101.59 74.1444C101.436 74.0301 101.259 73.9429 101.059 73.8829C100.861 73.8229 100.643 73.7929 100.403 73.7929C99.954 73.7929 99.5597 73.9044 99.2196 74.1273C98.8824 74.3502 98.6195 74.6745 98.4309 75.1003C98.2423 75.5233 98.148 76.0405 98.148 76.6521C98.148 77.2636 98.2408 77.7837 98.4266 78.2124C98.6123 78.6411 98.8752 78.9683 99.2153 79.194C99.5554 79.4169 99.9569 79.5284 100.42 79.5284C100.84 79.5284 101.199 79.4541 101.496 79.3055C101.796 79.154 102.024 78.9411 102.182 78.6668C102.342 78.3924 102.422 78.0681 102.422 77.6937L102.799 77.7495H100.536V76.352H104.209V77.458C104.209 78.2296 104.046 78.8925 103.72 79.4469C103.395 79.9985 102.946 80.4243 102.374 80.7244C101.803 81.0216 101.149 81.1702 100.411 81.1702C99.5883 81.1702 98.8652 80.9887 98.2423 80.6258C97.6193 80.26 97.1335 79.7413 96.7848 79.0697C96.439 78.3953 96.2661 77.5951 96.2661 76.6692C96.2661 75.9577 96.369 75.3232 96.5748 74.766C96.7834 74.2059 97.0749 73.7315 97.4492 73.3428C97.8236 72.9542 98.2594 72.6584 98.7566 72.4555C99.2539 72.2526 99.7926 72.1511 100.373 72.1511C100.87 72.1511 101.333 72.224 101.762 72.3698C102.19 72.5126 102.57 72.7155 102.902 72.9785C103.236 73.2414 103.509 73.5543 103.72 73.9172C103.932 74.2773 104.068 74.6745 104.128 75.1089H102.242ZM113.671 76.6607C113.671 77.618 113.489 78.4325 113.126 79.104C112.766 79.7756 112.275 80.2886 111.652 80.6429C111.032 80.9944 110.334 81.1702 109.56 81.1702C108.78 81.1702 108.08 80.993 107.459 80.6386C106.839 80.2843 106.349 79.7713 105.989 79.0997C105.629 78.4282 105.449 77.6151 105.449 76.6607C105.449 75.7033 105.629 74.8889 105.989 74.2173C106.349 73.5457 106.839 73.0342 107.459 72.6827C108.08 72.3283 108.78 72.1511 109.56 72.1511C110.334 72.1511 111.032 72.3283 111.652 72.6827C112.275 73.0342 112.766 73.5457 113.126 74.2173C113.489 74.8889 113.671 75.7033 113.671 76.6607ZM111.789 76.6607C111.789 76.0405 111.696 75.5176 111.51 75.0918C111.327 74.666 111.069 74.343 110.734 74.123C110.4 73.9029 110.009 73.7929 109.56 73.7929C109.111 73.7929 108.72 73.9029 108.385 74.123C108.051 74.343 107.791 74.666 107.605 75.0918C107.422 75.5176 107.331 76.0405 107.331 76.6607C107.331 77.2808 107.422 77.8038 107.605 78.2296C107.791 78.6554 108.051 78.9783 108.385 79.1983C108.72 79.4184 109.111 79.5284 109.56 79.5284C110.009 79.5284 110.4 79.4184 110.734 79.1983C111.069 78.9783 111.327 78.6554 111.51 78.2296C111.696 77.8038 111.789 77.2808 111.789 76.6607Z" fill="#A00D25"/>
<path d="M47.108 94.7729L46.863 93.7299C46.821 93.5386 46.7417 93.4009 46.625 93.3169C46.513 93.2329 46.3683 93.1909 46.191 93.1909H45.946C45.946 93.5036 45.946 93.8046 45.946 94.0939C45.9507 94.3786 45.9553 94.6586 45.96 94.9339L46.45 94.9829V95.3609H44.231V94.9829L44.756 94.9269C44.7653 94.6422 44.77 94.3552 44.77 94.0659C44.77 93.7766 44.77 93.4849 44.77 93.1909V92.9319C44.77 92.6426 44.77 92.3532 44.77 92.0639C44.77 91.7746 44.7653 91.4852 44.756 91.1959L44.231 91.1399V90.7619H46.45V91.1399L45.96 91.1889C45.9553 91.4502 45.9507 91.7162 45.946 91.9869C45.946 92.2529 45.946 92.5236 45.946 92.7989H46.135C46.275 92.7989 46.3963 92.7802 46.499 92.7429C46.6017 92.7056 46.695 92.6262 46.779 92.5049C46.863 92.3836 46.9447 92.2016 47.024 91.9589C47.1733 91.5156 47.325 91.1936 47.479 90.9929C47.633 90.7876 47.8057 90.6662 47.997 90.6289C48.4077 90.6382 48.613 90.8179 48.613 91.1679C48.613 91.3126 48.557 91.4386 48.445 91.5459C48.333 91.6486 48.1557 91.6999 47.913 91.6999C47.7963 91.6999 47.6867 91.6882 47.584 91.6649C47.514 91.7956 47.4463 91.9542 47.381 92.1409C47.3017 92.3649 47.213 92.5446 47.115 92.6799C47.017 92.8106 46.8933 92.9086 46.744 92.9739C47.1593 93.0252 47.4743 93.1442 47.689 93.3309C47.9083 93.5176 48.0553 93.7952 48.13 94.1639L48.312 94.9409L48.851 94.9829V95.3609C48.7157 95.3982 48.585 95.4239 48.459 95.4379C48.3377 95.4519 48.2233 95.4589 48.116 95.4589C47.836 95.4589 47.612 95.4169 47.444 95.3329C47.2807 95.2489 47.1687 95.0622 47.108 94.7729ZM51.4499 92.3019V91.9799H53.2629V92.3019L52.8919 92.3789C52.8872 92.5516 52.8849 92.7359 52.8849 92.9319C52.8849 93.1279 52.8849 93.3006 52.8849 93.4499V93.8909C52.8849 94.0402 52.8849 94.2129 52.8849 94.4089C52.8849 94.6002 52.8872 94.7822 52.8919 94.9549L53.2629 95.0319V95.3609H51.4499V95.0319L51.8769 94.9269V93.1209L50.5329 94.6819V94.9339L50.9599 95.0319V95.3609H49.0839V95.0319L49.4549 94.9549C49.4595 94.7822 49.4619 94.6002 49.4619 94.4089C49.4619 94.2129 49.4619 94.0402 49.4619 93.8909V93.4499C49.4619 93.3006 49.4619 93.1279 49.4619 92.9319C49.4619 92.7359 49.4595 92.5516 49.4549 92.3789L49.0839 92.3019V91.9799H50.9599V92.3019L50.5329 92.3999V94.1429L51.8769 92.5889V92.4069L51.4499 92.3019ZM53.5672 93.2469L53.5952 91.9799H57.1302L57.1512 93.2469H56.7172L56.5422 92.3439H55.9262C55.9216 92.5166 55.9192 92.7056 55.9192 92.9109C55.9192 93.1162 55.9192 93.2959 55.9192 93.4499V93.8909C55.9192 94.0356 55.9192 94.2059 55.9192 94.4019C55.9192 94.5932 55.9216 94.7752 55.9262 94.9479L56.3462 95.0319V95.3609H54.3722V95.0319L54.7922 94.9479C54.7969 94.7752 54.7992 94.5932 54.7992 94.4019C54.7992 94.2059 54.7992 94.0356 54.7992 93.8909V93.4499C54.7992 93.2959 54.7992 93.1162 54.7992 92.9109C54.7992 92.7056 54.7969 92.5166 54.7922 92.3439H54.1762L54.0012 93.2469H53.5672ZM60.1189 95.4589C59.7129 95.4589 59.4562 95.2909 59.3489 94.9549C59.1995 95.1136 59.0549 95.2396 58.9149 95.3329C58.7795 95.4216 58.5905 95.4659 58.3479 95.4659C58.0772 95.4659 57.8555 95.3889 57.6829 95.2349C57.5149 95.0809 57.4309 94.8592 57.4309 94.5699C57.4309 94.4019 57.4682 94.2502 57.5429 94.1149C57.6175 93.9796 57.7529 93.8536 57.9489 93.7369C58.1449 93.6202 58.4225 93.5106 58.7819 93.4079C58.8519 93.3846 58.9335 93.3612 59.0269 93.3379C59.1202 93.3146 59.2159 93.2912 59.3139 93.2679V93.0369C59.3139 92.7242 59.2742 92.5119 59.1949 92.3999C59.1202 92.2879 58.9709 92.2319 58.7469 92.2319C58.7142 92.2319 58.6839 92.2319 58.6559 92.2319C58.6279 92.2319 58.5952 92.2342 58.5579 92.2389L58.5229 92.5469C58.5182 92.7756 58.4645 92.9412 58.3619 93.0439C58.2639 93.1466 58.1472 93.1979 58.0119 93.1979C57.7552 93.1979 57.5989 93.0812 57.5429 92.8479C57.5615 92.5586 57.7085 92.3229 57.9839 92.1409C58.2592 91.9589 58.6489 91.8679 59.1529 91.8679C59.6009 91.8679 59.9205 91.9706 60.1119 92.1759C60.3079 92.3812 60.4059 92.7196 60.4059 93.1909V94.7589C60.4059 94.8942 60.4572 94.9619 60.5599 94.9619C60.5972 94.9619 60.6322 94.9526 60.6649 94.9339C60.6975 94.9106 60.7325 94.8686 60.7699 94.8079L60.9589 94.9339C60.8749 95.1206 60.7652 95.2559 60.6299 95.3399C60.4992 95.4192 60.3289 95.4589 60.1189 95.4589ZM58.4669 94.3879C58.4669 94.5606 58.5065 94.6889 58.5859 94.7729C58.6699 94.8569 58.7702 94.8989 58.8869 94.8989C58.9382 94.8989 58.9919 94.8872 59.0479 94.8639C59.1039 94.8406 59.1925 94.7869 59.3139 94.7029V93.5689C59.2532 93.5876 59.1925 93.6086 59.1319 93.6319C59.0759 93.6506 59.0269 93.6692 58.9849 93.6879C58.8262 93.7532 58.7002 93.8466 58.6069 93.9679C58.5135 94.0846 58.4669 94.2246 58.4669 94.3879ZM63.4674 92.3019V91.9799H65.2804V92.3019L64.9094 92.3789C64.9048 92.5516 64.9024 92.7359 64.9024 92.9319C64.9024 93.1279 64.9024 93.3006 64.9024 93.4499V93.8909C64.9024 94.0402 64.9024 94.2129 64.9024 94.4089C64.9024 94.6002 64.9048 94.7822 64.9094 94.9549L65.2804 95.0319V95.3609H63.4674V95.0319L63.8944 94.9269V93.1209L62.5504 94.6819V94.9339L62.9774 95.0319V95.3609H61.1014V95.0319L61.4724 94.9549C61.4771 94.7822 61.4794 94.6002 61.4794 94.4089C61.4794 94.2129 61.4794 94.0402 61.4794 93.8909V93.4499C61.4794 93.3006 61.4794 93.1279 61.4794 92.9319C61.4794 92.7359 61.4771 92.5516 61.4724 92.3789L61.1014 92.3019V91.9799H62.9774V92.3019L62.5504 92.3999V94.1429L63.8944 92.5889V92.4069L63.4674 92.3019ZM63.2294 91.5179C62.7674 91.5179 62.4291 91.4269 62.2144 91.2449C62.0044 91.0582 61.9018 90.8226 61.9064 90.5379C61.9858 90.2859 62.1491 90.1599 62.3964 90.1599C62.5318 90.1599 62.6391 90.1996 62.7184 90.2789C62.8024 90.3536 62.8444 90.4586 62.8444 90.5939C62.8444 90.6919 62.8188 90.7806 62.7674 90.8599C62.7208 90.9392 62.6554 91.0092 62.5714 91.0699C62.7488 91.1446 62.9681 91.1819 63.2294 91.1819C63.4908 91.1819 63.7101 91.1446 63.8874 91.0699C63.8034 91.0092 63.7358 90.9392 63.6844 90.8599C63.6378 90.7806 63.6144 90.6919 63.6144 90.5939C63.6144 90.4586 63.6564 90.3536 63.7404 90.2789C63.8244 90.1996 63.9318 90.1599 64.0624 90.1599C64.3144 90.1599 64.4778 90.2859 64.5524 90.5379C64.5571 90.8226 64.4521 91.0582 64.2374 91.2449C64.0274 91.4269 63.6914 91.5179 63.2294 91.5179ZM65.7722 93.8979V93.2679H67.5852V93.8979H65.7722ZM68.0813 95.3609V94.9829L68.6063 94.9269C68.6156 94.6376 68.6203 94.3459 68.6203 94.0519C68.6203 93.7579 68.6203 93.4616 68.6203 93.1629V92.9599C68.6203 92.6706 68.6203 92.3789 68.6203 92.0849C68.6203 91.7862 68.6156 91.4899 68.6063 91.1959L68.3333 91.1679L68.0813 90.8389L68.5993 90.7899V90.7619H71.6653L71.6863 92.0639H71.1263L70.9653 91.1539H69.7893C69.7846 91.4106 69.7799 91.6649 69.7753 91.9169C69.7753 92.1642 69.7753 92.3999 69.7753 92.6239C69.9573 92.6099 70.1439 92.6029 70.3353 92.6029C70.7553 92.6029 71.0936 92.6659 71.3503 92.7919C71.6069 92.9179 71.7936 93.0836 71.9103 93.2889C72.0316 93.4896 72.0923 93.7066 72.0923 93.9399C72.0923 94.1079 72.0619 94.2759 72.0013 94.4439C71.9453 94.6119 71.8403 94.7659 71.6863 94.9059C71.5369 95.0412 71.3269 95.1509 71.0563 95.2349C70.7903 95.3189 70.4473 95.3609 70.0273 95.3609H68.0813ZM69.7753 93.1629C69.7753 93.4616 69.7753 93.7602 69.7753 94.0589C69.7799 94.3576 69.7846 94.6562 69.7893 94.9549H69.9923C70.2863 94.9549 70.5173 94.8732 70.6853 94.7099C70.8533 94.5466 70.9373 94.2992 70.9373 93.9679C70.9373 93.6506 70.8626 93.4126 70.7133 93.2539C70.5686 93.0906 70.3283 93.0089 69.9923 93.0089C69.9549 93.0089 69.9176 93.0089 69.8803 93.0089C69.8476 93.0089 69.8126 93.0112 69.7753 93.0159V93.1629ZM74.8014 92.3019V91.9799H76.6144V92.3019L76.2434 92.3789C76.2388 92.5516 76.2364 92.7359 76.2364 92.9319C76.2364 93.1279 76.2364 93.3006 76.2364 93.4499V93.8909C76.2364 94.0402 76.2364 94.2129 76.2364 94.4089C76.2364 94.6002 76.2388 94.7822 76.2434 94.9549L76.6144 95.0319V95.3609H74.8014V95.0319L75.2284 94.9269V93.1209L73.8844 94.6819V94.9339L74.3114 95.0319V95.3609H72.4354V95.0319L72.8064 94.9549C72.8111 94.7822 72.8134 94.6002 72.8134 94.4089C72.8134 94.2129 72.8134 94.0402 72.8134 93.8909V93.4499C72.8134 93.3006 72.8134 93.1279 72.8134 92.9319C72.8134 92.7359 72.8111 92.5516 72.8064 92.3789L72.4354 92.3019V91.9799H74.3114V92.3019L73.8844 92.3999V94.1429L75.2284 92.5889V92.4069L74.8014 92.3019ZM80.9142 92.3019V91.9799H82.6782V92.3019L82.3002 92.3789C82.2955 92.5516 82.2932 92.7359 82.2932 92.9319C82.2932 93.1279 82.2932 93.3006 82.2932 93.4499V93.8909C82.2932 94.0402 82.2932 94.2129 82.2932 94.4089C82.2932 94.6002 82.2955 94.7822 82.3002 94.9549L82.6782 95.0319V95.3609H77.0292V95.0319L77.4002 94.9549C77.4048 94.7822 77.4072 94.6002 77.4072 94.4089C77.4072 94.2129 77.4072 94.0402 77.4072 93.8909V93.4499C77.4072 93.3006 77.4072 93.1279 77.4072 92.9319C77.4072 92.7359 77.4048 92.5516 77.4002 92.3789L77.0292 92.3019V91.9799H78.7862V92.3019L78.4852 92.3719C78.4805 92.5446 78.4782 92.7312 78.4782 92.9319C78.4782 93.1279 78.4782 93.3006 78.4782 93.4499V93.8909C78.4782 94.0449 78.4782 94.2246 78.4782 94.4299C78.4782 94.6306 78.4805 94.8172 78.4852 94.9899H79.3252C79.3298 94.8172 79.3322 94.6306 79.3322 94.4299C79.3322 94.2246 79.3322 94.0449 79.3322 93.8909V93.4499C79.3322 93.3006 79.3322 93.1279 79.3322 92.9319C79.3322 92.7312 79.3298 92.5446 79.3252 92.3719L79.0242 92.3019V91.9799H80.6832V92.3019L80.3752 92.3719C80.3705 92.5446 80.3682 92.7312 80.3682 92.9319C80.3682 93.1279 80.3682 93.3006 80.3682 93.4499V93.8909C80.3682 94.0449 80.3682 94.2246 80.3682 94.4299C80.3682 94.6306 80.3705 94.8172 80.3752 94.9899H81.2222C81.2268 94.8172 81.2292 94.6306 81.2292 94.4299C81.2292 94.2246 81.2292 94.0449 81.2292 93.8909V93.4499C81.2292 93.3006 81.2292 93.1279 81.2292 92.9319C81.2292 92.7312 81.2268 92.5446 81.2222 92.3719L80.9142 92.3019ZM85.4938 94.8569L85.3538 94.2059C85.3258 94.0706 85.2698 93.9726 85.1858 93.9119C85.1018 93.8512 84.9735 93.8209 84.8008 93.8209H84.5838C84.5838 94.0076 84.5838 94.2012 84.5838 94.4019C84.5885 94.6026 84.5908 94.7869 84.5908 94.9549L84.9618 95.0319V95.3609H83.0858V95.0319L83.4568 94.9549C83.4615 94.7822 83.4638 94.6002 83.4638 94.4089C83.4638 94.2129 83.4638 94.0402 83.4638 93.8909V93.4499C83.4638 93.3006 83.4638 93.1279 83.4638 92.9319C83.4638 92.7359 83.4615 92.5516 83.4568 92.3789L83.0858 92.3019V91.9799H84.9618V92.3019L84.5908 92.3789C84.5908 92.5422 84.5885 92.7219 84.5838 92.9179C84.5838 93.1092 84.5838 93.2866 84.5838 93.4499H84.8428C84.9875 93.4499 85.1065 93.4149 85.1998 93.3449C85.2931 93.2749 85.3818 93.1139 85.4658 92.8619C85.5731 92.5306 85.6898 92.2949 85.8158 92.1549C85.9465 92.0149 86.1238 91.9192 86.3478 91.8679C86.5111 91.9006 86.6325 91.9636 86.7118 92.0569C86.7958 92.1502 86.8378 92.2599 86.8378 92.3859C86.8378 92.5446 86.7818 92.6682 86.6698 92.7569C86.5625 92.8456 86.4295 92.8899 86.2708 92.8899C86.1961 92.8899 86.1261 92.8852 86.0608 92.8759C86.0001 92.8666 85.9395 92.8526 85.8788 92.8339C85.8508 92.8899 85.8228 92.9529 85.7948 93.0229C85.7341 93.1769 85.6665 93.3006 85.5918 93.3939C85.5171 93.4826 85.4261 93.5549 85.3188 93.6109C85.6641 93.6576 85.9208 93.7509 86.0888 93.8909C86.2568 94.0309 86.3711 94.2246 86.4318 94.4719L86.5578 94.9759L86.9428 95.0389V95.3609C86.8588 95.3796 86.7631 95.3982 86.6558 95.4169C86.5531 95.4356 86.4411 95.4449 86.3198 95.4449C86.1005 95.4449 85.9185 95.4052 85.7738 95.3259C85.6338 95.2419 85.5405 95.0856 85.4938 94.8569ZM88.8275 92.2319C88.6968 92.2319 88.5755 92.3136 88.4635 92.4769C88.3562 92.6356 88.2955 92.9296 88.2815 93.3589H88.8765C89.0445 93.3589 89.1565 93.3262 89.2125 93.2609C89.2732 93.1909 89.3035 93.0766 89.3035 92.9179C89.3035 92.6846 89.2568 92.5119 89.1635 92.3999C89.0702 92.2879 88.9582 92.2319 88.8275 92.2319ZM88.8415 95.4659C88.5008 95.4659 88.1998 95.3959 87.9385 95.2559C87.6772 95.1112 87.4718 94.9059 87.3225 94.6399C87.1732 94.3692 87.0985 94.0472 87.0985 93.6739C87.0985 93.2819 87.1848 92.9529 87.3575 92.6869C87.5348 92.4162 87.7612 92.2132 88.0365 92.0779C88.3118 91.9379 88.5988 91.8679 88.8975 91.8679C89.2055 91.8679 89.4668 91.9332 89.6815 92.0639C89.9008 92.1946 90.0665 92.3719 90.1785 92.5959C90.2905 92.8152 90.3465 93.0672 90.3465 93.3519C90.3465 93.4872 90.3325 93.6109 90.3045 93.7229H88.2815C88.3048 94.0916 88.4052 94.3646 88.5825 94.5419C88.7645 94.7146 88.9768 94.8009 89.2195 94.8009C89.4108 94.8009 89.5742 94.7659 89.7095 94.6959C89.8448 94.6212 89.9638 94.5302 90.0665 94.4229L90.3115 94.6469C90.1668 94.9222 89.9708 95.1276 89.7235 95.2629C89.4762 95.3982 89.1822 95.4659 88.8415 95.4659ZM93.1569 94.8569L93.0169 94.2059C92.9889 94.0706 92.9329 93.9726 92.8489 93.9119C92.7649 93.8512 92.6366 93.8209 92.4639 93.8209H92.2469C92.2469 94.0076 92.2469 94.2012 92.2469 94.4019C92.2516 94.6026 92.2539 94.7869 92.2539 94.9549L92.6249 95.0319V95.3609H90.7489V95.0319L91.1199 94.9549C91.1246 94.7822 91.1269 94.6002 91.1269 94.4089C91.1269 94.2129 91.1269 94.0402 91.1269 93.8909V93.4499C91.1269 93.3006 91.1269 93.1279 91.1269 92.9319C91.1269 92.7359 91.1246 92.5516 91.1199 92.3789L90.7489 92.3019V91.9799H92.6249V92.3019L92.2539 92.3789C92.2539 92.5422 92.2516 92.7219 92.2469 92.9179C92.2469 93.1092 92.2469 93.2866 92.2469 93.4499H92.5059C92.6506 93.4499 92.7696 93.4149 92.8629 93.3449C92.9562 93.2749 93.0449 93.1139 93.1289 92.8619C93.2362 92.5306 93.3529 92.2949 93.4789 92.1549C93.6096 92.0149 93.7869 91.9192 94.0109 91.8679C94.1742 91.9006 94.2956 91.9636 94.3749 92.0569C94.4589 92.1502 94.5009 92.2599 94.5009 92.3859C94.5009 92.5446 94.4449 92.6682 94.3329 92.7569C94.2256 92.8456 94.0926 92.8899 93.9339 92.8899C93.8592 92.8899 93.7892 92.8852 93.7239 92.8759C93.6632 92.8666 93.6026 92.8526 93.5419 92.8339C93.5139 92.8899 93.4859 92.9529 93.4579 93.0229C93.3972 93.1769 93.3296 93.3006 93.2549 93.3939C93.1802 93.4826 93.0892 93.5549 92.9819 93.6109C93.3272 93.6576 93.5839 93.7509 93.7519 93.8909C93.9199 94.0309 94.0342 94.2246 94.0949 94.4719L94.2209 94.9759L94.6059 95.0389V95.3609C94.5219 95.3796 94.4262 95.3982 94.3189 95.4169C94.2162 95.4356 94.1042 95.4449 93.9829 95.4449C93.7636 95.4449 93.5816 95.4052 93.4369 95.3259C93.2969 95.2419 93.2036 95.0856 93.1569 94.8569Z" fill="black"/>
</g>
<defs>
<clipPath id="clip0_13_30">
<rect width="107" height="66" fill="white" transform="translate(16 31)"/>
</clipPath>
</defs>
</svg>
