<svg width="171" height="105" viewBox="0 0 171 105" fill="none" xmlns="http://www.w3.org/2000/svg">
<path d="M70.944 1.5534C71.028 2.81291 71.2379 3.1068 72.1196 3.23275C74.3447 3.52664 74.4287 4.07243 74.9745 16.4157C75.2684 22.7552 75.6042 31.7398 75.7302 36.4L76.0241 44.9227H76.9897C77.9973 44.9227 77.9973 44.8807 77.9973 40.1786C77.9973 37.6175 77.7874 28.3391 77.5775 19.6065C77.2416 7.22122 77.0317 3.44267 76.5279 2.56101C75.8561 1.21753 73.631 -7.62939e-06 71.9097 -7.62939e-06C70.9021 -7.62939e-06 70.8181 0.125946 70.944 1.5534Z" fill="white"/>
<path d="M83.959 4.78615C82.2377 5.12202 80.8102 5.4579 80.7263 5.54186C80.6423 5.62583 82.7835 5.7098 85.4704 5.7098C89.5429 5.75178 90.7604 5.87773 92.6917 6.67543C93.9512 7.17923 95.2947 7.85098 95.6305 8.14486C95.9664 8.43875 97.3939 8.90057 98.7793 9.19446C101.718 9.82422 107.932 11.7555 107.722 11.9654C107.638 12.0494 105.791 11.7555 103.607 11.2937C97.9816 10.1601 97.8557 10.2021 99.535 12.2593C100.375 13.3089 100.962 13.4768 106.42 14.2745C109.695 14.7363 114.481 15.66 117.126 16.3317C119.729 17.0035 121.954 17.4233 122.08 17.3393C122.458 17.0035 117.798 12.931 114.817 10.9998C108.016 6.63344 101.382 4.61822 92.6917 4.36632C88.9551 4.28235 85.9742 4.4083 83.959 4.78615Z" fill="white"/>
<path d="M47.475 18.6826C34.2501 25.2321 23.4182 30.69 23.4182 30.816C23.4182 30.9419 24.2999 30.69 25.4334 30.2702C26.525 29.8503 37.4828 25.7359 49.7421 21.1597L72.1195 12.8049V9.74007C72.1195 8.1027 71.9935 6.71724 71.8256 6.75922C71.6157 6.75922 60.6579 12.1332 47.475 18.6826Z" fill="white"/>
<path d="M87.1498 15.9538C85.2185 16.1218 84.4628 16.4156 83.5812 17.3393L82.4056 18.4728L82.2797 26.7857C82.1957 31.3199 82.2377 35.6862 82.4056 36.4C82.5735 37.2816 83.1613 38.1633 84.043 38.835C85.3445 39.8426 85.7643 39.9266 88.9551 39.8007C92.3558 39.6747 92.3978 39.6747 90.3825 39.3388C85.9323 38.6671 85.3865 38.4572 84.3788 36.9458C83.4132 35.5183 83.4132 35.3084 83.5392 27.3734L83.6651 19.2286L85.0506 18.011C86.1422 17.0034 86.8139 16.7935 88.6192 16.7515C90.8444 16.7095 93.4474 16.1218 92.2718 15.9118C91.1383 15.7439 89.5848 15.7439 87.1498 15.9538Z" fill="white"/>
<path d="M100.249 21.0758L102.222 25.82L107.428 26.3238C113.012 26.8696 119.771 28.1711 122.374 29.2207C123.886 29.8085 123.928 29.8085 122.626 29.6405C118.974 29.0528 112.004 28.507 110.535 28.6329C109.065 28.7589 109.401 28.8848 113.474 29.9764C116.035 30.6481 119.645 31.7397 121.535 32.4115C123.424 33.0412 127.706 34.2588 130.981 35.0984C134.298 35.9381 137.195 36.7778 137.404 37.0297C137.698 37.2816 137.321 37.3236 136.355 37.1556C133.584 36.6518 125.649 36.232 125.271 36.5679C124.431 37.3236 125.481 38.1213 127.622 38.4152C130.603 38.751 136.817 39.9686 136.649 40.1365C136.607 40.2205 134.088 40.1365 131.107 39.9266C126.195 39.6327 124.389 39.8006 125.103 40.5563C125.229 40.6823 127.958 41.1441 131.107 41.564C134.256 41.9838 136.901 42.4036 137.027 42.5296C137.153 42.6555 134.592 42.6555 131.359 42.5296L125.439 42.2777V45.0066C125.439 46.518 125.691 48.0295 125.985 48.4493C126.363 48.9531 127.958 49.373 131.947 50.0027C144.416 51.892 144.374 51.85 133.752 51.976L124.222 52.0599L124.096 53.6553L123.97 55.2087L120.947 55.3347C116.832 55.5026 117.042 56.2583 121.157 56.2583C122.92 56.2583 129.512 56.5522 135.725 56.8881C141.981 57.2239 147.565 57.5178 148.236 57.5178H149.37V53.0255C149.37 47.9875 148.782 46.1822 146.305 43.6212C145.549 42.8235 144.71 41.396 144.416 40.3884C143.576 37.6175 141.729 35.8541 137.446 33.7969C135.347 32.7893 132.87 31.7397 131.905 31.4878C130.351 31.026 130.099 30.7321 129.008 28.1711C128.21 26.3658 127.034 24.6445 125.607 23.175C123.382 20.9499 122.122 20.3201 122.71 21.7056C122.878 22.1254 123.13 22.8391 123.214 23.343C123.424 24.1826 123.298 24.2246 120.947 23.8887C119.603 23.7208 115.405 23.175 111.584 22.6712C107.764 22.2094 104.279 21.7476 103.817 21.6216C103.356 21.5377 102.264 20.3201 101.382 18.8927C100.375 17.2553 99.535 16.3736 99.0312 16.3736C98.3175 16.3736 98.4434 16.8774 100.249 21.0758Z" fill="white"/>
<path d="M67.2914 18.7667C64.7724 19.7743 58.7267 22.2514 53.8566 24.2246C45.9216 27.4154 39.75 29.9344 27.6166 34.9305C25.4335 35.8122 24.216 36.4419 24.8877 36.358C26.3991 36.1061 71.6997 23.217 71.9936 22.9651C72.0776 22.8392 72.1195 21.4537 72.0356 19.8163L71.9096 16.8775L67.2914 18.7667Z" fill="white"/>
<path d="M90.2146 24.3084C89.7947 24.6023 89.6268 25.358 89.6688 26.7435C89.7527 28.6328 89.7108 28.6748 89.165 27.7511C88.7451 26.9534 88.5772 26.9114 88.3673 27.4153C88.0734 28.171 88.6612 30.4801 89.3329 31.2778C89.5848 31.6136 90.3825 31.9915 91.0542 32.1174C91.726 32.2854 92.2718 32.5373 92.2718 32.7472C92.2718 33.5029 94.7908 34.1327 96.1763 33.6709L97.5198 33.251L95.8404 33.209C93.1534 33.1251 92.8176 32.7052 93.7412 30.606C95.0007 27.8771 94.4129 25.3161 92.3977 24.3924C91.1802 23.8466 90.9703 23.8466 90.2146 24.3084Z" fill="white"/>
<path d="M47.2651 35.8121C34.1661 40.2624 23.5022 43.915 23.5862 43.957C23.6702 44.0829 27.1548 43.3692 41.4713 40.3044C56.0817 37.1976 69.8944 34.3007 70.986 34.0908C72.1195 33.9228 72.1195 33.8809 72.1195 30.816C72.1195 28.5909 71.9516 27.7092 71.6157 27.7512C71.3218 27.7932 60.3641 31.4038 47.2651 35.8121Z" fill="white"/>
<path d="M66.2417 38.625C63.1349 39.4647 52.3871 42.4036 42.3949 45.1325C32.4447 47.8615 24.3418 50.1706 24.4258 50.2966C24.5518 50.3805 26.567 50.1706 28.9601 49.7928C31.3532 49.4149 35.2157 48.8271 37.6088 48.4913C39.9598 48.1554 43.7384 47.5676 46.0055 47.2317C48.2307 46.8959 54.9481 45.8883 60.9518 44.9646C68.0051 43.873 71.9516 43.1173 72.1615 42.7395C72.6233 42.0677 72.6653 37.4915 72.2454 37.2396C72.0355 37.1136 69.3486 37.7434 66.2417 38.625Z" fill="white"/>
<path d="M104.657 37.6595L102.138 38.3313L104.447 38.8351C108.771 39.7167 111.374 41.8999 113.054 46.0143L114.061 48.4914L118.47 48.6173C120.947 48.6593 122.92 48.6173 122.92 48.4494C122.92 48.3234 122.374 47.0219 121.702 45.5945C119.057 40.0946 115.279 37.3236 110.157 37.1137C108.31 37.0298 106.21 37.2397 104.657 37.6595Z" fill="white"/>
<path d="M89.9627 45.5524C83.1613 46.4341 68.1311 48.2814 62.4632 48.9111C53.9405 49.8348 24.9717 53.3614 23.964 53.5713C23.1244 53.7393 22.9984 54.0332 22.9984 55.6285V57.5178L58.8106 57.4339L94.5809 57.3079L94.7069 54.0332C94.7908 51.934 94.6649 50.8004 94.371 50.8004C93.8672 50.8004 93.6992 51.2202 93.3214 53.4034L93.0695 54.9988L85.2185 54.9568C77.7454 54.8728 77.4935 54.8728 80.5163 54.411L83.6651 53.9492L78.795 53.8232L73.8829 53.6973L73.2111 51.934C72.2455 49.4149 72.3295 49.205 74.3447 48.9531C76.8217 48.6172 94.1191 46.602 94.4969 46.602C94.6649 46.602 94.7908 46.2242 94.7908 45.7623C94.7908 45.3005 94.6649 44.9646 94.4969 44.9646C94.287 45.0066 92.2718 45.2585 89.9627 45.5524Z" fill="white"/>
<path d="M100.795 46.1822C98.1915 47.7776 95.7984 53.8232 96.6801 56.6362C96.932 57.4758 97.1839 57.5178 103.398 57.5178H109.905L110.157 56.4262C110.661 54.411 110.073 50.0867 109.065 48.4913C107.176 45.4685 103.607 44.4608 100.795 46.1822ZM106.756 47.9875C108.771 50.0027 109.737 53.8232 108.352 54.327C107.47 54.6629 107.218 54.369 106.588 52.0599C105.959 49.9187 103.691 47.4417 102.348 47.4417C101.886 47.4417 101.592 47.2318 101.718 47.0219C101.844 46.77 102.726 46.602 103.691 46.602C105.035 46.602 105.665 46.8959 106.756 47.9875Z" fill="white"/>
<path d="M0.327122 54.3691C0.0332346 54.7049 -0.092717 55.4187 0.0752184 56.0064C0.495057 57.7278 3.09806 57.7698 3.5179 56.0064C3.85377 54.7469 3.05607 53.7393 1.79656 53.7393C1.29275 53.7393 0.621009 54.0332 0.327122 54.3691Z" fill="white"/>
<path d="M7.46436 54.3691C6.75063 55.2508 7.25444 56.9301 8.34602 57.224C9.60553 57.5599 10.3612 57.14 10.6551 56.0065C10.991 54.747 10.1933 53.7393 8.93379 53.7393C8.42998 53.7393 7.75824 54.0332 7.46436 54.3691Z" fill="white"/>
<path d="M14.6017 54.3691C14.3078 54.7049 14.1818 55.4187 14.3498 56.0064C14.7696 57.7278 17.3726 57.7698 17.7924 56.0064C18.1283 54.7469 17.3306 53.7393 16.0711 53.7393C15.5673 53.7393 14.8955 54.0332 14.6017 54.3691Z" fill="white"/>
<path d="M153.148 54.3691C152.855 54.7049 152.729 55.4187 152.897 56.0064C153.316 57.7278 155.919 57.7698 156.339 56.0064C156.675 54.7469 155.877 53.7393 154.618 53.7393C154.114 53.7393 153.442 54.0332 153.148 54.3691Z" fill="white"/>
<path d="M160.286 54.3691C159.992 54.7049 159.866 55.4187 160.034 56.0064C160.454 57.7278 163.057 57.7698 163.476 56.0064C163.812 54.7469 163.015 53.7393 161.755 53.7393C161.251 53.7393 160.58 54.0332 160.286 54.3691Z" fill="white"/>
<path d="M167.423 54.3691C167.129 54.7049 167.003 55.4187 167.171 56.0064C167.591 57.7278 170.194 57.7698 170.614 56.0064C170.95 54.7469 170.152 53.7393 168.892 53.7393C168.389 53.7393 167.717 54.0332 167.423 54.3691Z" fill="white"/>
<path d="M16.7423 79.8763V65.8308H26.2066V68.2792H19.7119V71.626H25.7196V74.0743H19.7119V77.428H26.234V79.8763H16.7423ZM40.3155 65.8308V79.8763H37.7506L31.6399 71.0362H31.5371V79.8763H28.5675V65.8308H31.1736L37.2362 74.6641H37.3596V65.8308H40.3155ZM50.3884 69.8703C50.3336 69.3171 50.0981 68.8873 49.682 68.581C49.266 68.2746 48.7013 68.1215 47.9881 68.1215C47.5034 68.1215 47.0942 68.19 46.7605 68.3272C46.4267 68.4598 46.1707 68.645 45.9923 68.8827C45.8186 69.1205 45.7317 69.3902 45.7317 69.692C45.7226 69.9434 45.7752 70.1629 45.8895 70.3504C46.0084 70.5378 46.1707 70.7001 46.3764 70.8373C46.5822 70.9699 46.8199 71.0865 47.0897 71.1871C47.3594 71.2831 47.6475 71.3654 47.9538 71.4339L49.2157 71.7357C49.8283 71.8729 50.3907 72.0558 50.9028 72.2844C51.4149 72.513 51.8584 72.7941 52.2333 73.1279C52.6082 73.4617 52.8985 73.8549 53.1043 74.3075C53.3146 74.7602 53.422 75.2791 53.4266 75.8643C53.422 76.7239 53.2026 77.4691 52.7682 78.1001C52.3384 78.7265 51.7166 79.2134 50.9028 79.5609C50.0935 79.9038 49.1174 80.0752 47.9744 80.0752C46.8405 80.0752 45.8529 79.9015 45.0116 79.554C44.1749 79.2065 43.5211 78.6922 43.0502 78.0109C42.5838 77.3251 42.3392 76.477 42.3164 75.4665H45.1899C45.2219 75.9375 45.3568 76.3307 45.5946 76.6461C45.8369 76.9571 46.1592 77.1925 46.5616 77.3525C46.9685 77.508 47.428 77.5857 47.9401 77.5857C48.443 77.5857 48.8796 77.5126 49.25 77.3663C49.6249 77.2199 49.9152 77.0165 50.121 76.7559C50.3267 76.4953 50.4296 76.1958 50.4296 75.8575C50.4296 75.542 50.3359 75.2768 50.1484 75.0619C49.9655 74.847 49.6958 74.6641 49.3391 74.5133C48.9871 74.3624 48.555 74.2252 48.0429 74.1018L46.5136 73.7177C45.3294 73.4297 44.3944 72.9793 43.7086 72.3667C43.0228 71.754 42.6821 70.9287 42.6867 69.8909C42.6821 69.0404 42.9085 68.2975 43.3657 67.662C43.8275 67.0264 44.4607 66.5304 45.2654 66.1737C46.0701 65.8171 46.9845 65.6388 48.0086 65.6388C49.0511 65.6388 49.9609 65.8171 50.7382 66.1737C51.52 66.5304 52.1281 67.0264 52.5625 67.662C52.9968 68.2975 53.2208 69.0336 53.2346 69.8703H50.3884ZM57.5243 79.8763H54.3422L59.1909 65.8308H63.0177L67.8596 79.8763H64.6774L61.1592 69.0404H61.0494L57.5243 79.8763ZM57.3255 74.3555H64.842V76.6736H57.3255V74.3555ZM69.5501 79.8763V65.8308H75.0915C76.1523 65.8308 77.0575 66.0206 77.8074 66.4001C78.5618 66.775 79.1356 67.3076 79.5288 67.998C79.9265 68.6838 80.1254 69.4908 80.1254 70.4189C80.1254 71.3516 79.9242 72.1541 79.5219 72.8262C79.1195 73.4937 78.5366 74.0058 77.7731 74.3624C77.0141 74.719 76.0951 74.8973 75.0161 74.8973H71.3058V72.5107H74.536C75.103 72.5107 75.5739 72.433 75.9488 72.2775C76.3237 72.122 76.6026 71.8889 76.7855 71.578C76.9729 71.2671 77.0667 70.8807 77.0667 70.4189C77.0667 69.9526 76.9729 69.5594 76.7855 69.2393C76.6026 68.9193 76.3214 68.677 75.9419 68.5124C75.567 68.3432 75.0938 68.2586 74.5223 68.2586H72.5197V79.8763H69.5501ZM77.1353 73.4845L80.6261 79.8763H77.3479L73.9325 73.4845H77.1353ZM83.8768 80.0547C83.4242 80.0547 83.0356 79.8946 82.7109 79.5746C82.3909 79.25 82.2309 78.8613 82.2309 78.4087C82.2309 77.9606 82.3909 77.5766 82.7109 77.2565C83.0356 76.9365 83.4242 76.7765 83.8768 76.7765C84.3157 76.7765 84.6998 76.9365 85.029 77.2565C85.3582 77.5766 85.5228 77.9606 85.5228 78.4087C85.5228 78.7105 85.4451 78.9871 85.2896 79.2385C85.1387 79.4854 84.9398 79.6843 84.6929 79.8352C84.4461 79.9815 84.174 80.0547 83.8768 80.0547ZM87.9763 79.8763V65.8308H90.9459V72.0237H91.131L96.1855 65.8308H99.7449L94.5327 72.1198L99.8066 79.8763H96.2541L92.4067 74.1018L90.9459 75.8849V79.8763H87.9763ZM103.712 79.8763H100.53L105.379 65.8308H109.206L114.048 79.8763H110.865L107.347 69.0404H107.237L103.712 79.8763ZM103.513 74.3555H111.03V76.6736H103.513V74.3555ZM115.738 79.8763V65.8308H121.28C122.34 65.8308 123.246 66.0206 123.995 66.4001C124.75 66.775 125.324 67.3076 125.717 67.998C126.115 68.6838 126.313 69.4908 126.313 70.4189C126.313 71.3516 126.112 72.1541 125.71 72.8262C125.308 73.4937 124.725 74.0058 123.961 74.3624C123.202 74.719 122.283 74.8973 121.204 74.8973H117.494V72.5107H120.724C121.291 72.5107 121.762 72.433 122.137 72.2775C122.512 72.122 122.791 71.8889 122.973 71.578C123.161 71.2671 123.255 70.8807 123.255 70.4189C123.255 69.9526 123.161 69.5594 122.973 69.2393C122.791 68.9193 122.509 68.677 122.13 68.5124C121.755 68.3432 121.282 68.2586 120.71 68.2586H118.708V79.8763H115.738ZM123.323 73.4845L126.814 79.8763H123.536L120.12 73.4845H123.323ZM137.725 70.3709C137.629 70.0372 137.494 69.7423 137.321 69.4862C137.147 69.2256 136.934 69.0062 136.683 68.8278C136.436 68.645 136.153 68.5055 135.833 68.4095C135.517 68.3135 135.167 68.2655 134.783 68.2655C134.065 68.2655 133.434 68.4438 132.89 68.8004C132.351 69.157 131.93 69.676 131.628 70.3572C131.327 71.0339 131.176 71.8614 131.176 72.8399C131.176 73.8183 131.324 74.6504 131.622 75.3362C131.919 76.0221 132.339 76.5456 132.884 76.9068C133.428 77.2634 134.07 77.4417 134.811 77.4417C135.483 77.4417 136.057 77.3228 136.532 77.0851C137.012 76.8427 137.378 76.5021 137.629 76.0632C137.885 75.6243 138.013 75.1053 138.013 74.5064L138.617 74.5956H134.996V72.3598H140.873V74.1292C140.873 75.3637 140.613 76.4244 140.091 77.3114C139.57 78.1938 138.852 78.8751 137.938 79.3551C137.024 79.8306 135.977 80.0684 134.797 80.0684C133.48 80.0684 132.323 79.778 131.327 79.1974C130.33 78.6122 129.553 77.7823 128.995 76.7079C128.442 75.6289 128.165 74.3487 128.165 72.8673C128.165 71.7288 128.33 70.7138 128.659 69.8223C128.993 68.9261 129.459 68.1672 130.058 67.5454C130.657 66.9236 131.354 66.4504 132.15 66.1257C132.945 65.8011 133.807 65.6388 134.735 65.6388C135.531 65.6388 136.271 65.7554 136.957 65.9886C137.643 66.2172 138.251 66.5418 138.782 66.9624C139.316 67.3831 139.753 67.8837 140.091 68.4644C140.43 69.0404 140.647 69.676 140.743 70.3709H137.725ZM156.011 72.8536C156.011 74.3852 155.721 75.6883 155.14 76.7627C154.564 77.8372 153.777 78.6579 152.781 79.2248C151.789 79.7872 150.673 80.0684 149.434 80.0684C148.186 80.0684 147.066 79.7849 146.073 79.218C145.081 78.651 144.297 77.8303 143.721 76.7559C143.145 75.6814 142.857 74.3807 142.857 72.8536C142.857 71.3219 143.145 70.0189 143.721 68.9444C144.297 67.87 145.081 67.0516 146.073 66.4892C147.066 65.9223 148.186 65.6388 149.434 65.6388C150.673 65.6388 151.789 65.9223 152.781 66.4892C153.777 67.0516 154.564 67.87 155.14 68.9444C155.721 70.0189 156.011 71.3219 156.011 72.8536ZM153 72.8536C153 71.8614 152.852 71.0247 152.554 70.3435C152.262 69.6623 151.848 69.1456 151.313 68.7936C150.778 68.4415 150.152 68.2655 149.434 68.2655C148.716 68.2655 148.09 68.4415 147.555 68.7936C147.02 69.1456 146.604 69.6623 146.307 70.3435C146.014 71.0247 145.868 71.8614 145.868 72.8536C145.868 73.8457 146.014 74.6824 146.307 75.3637C146.604 76.0449 147.02 76.5616 147.555 76.9136C148.09 77.2657 148.716 77.4417 149.434 77.4417C150.152 77.4417 150.778 77.2657 151.313 76.9136C151.848 76.5616 152.262 76.0449 152.554 75.3637C152.852 74.6824 153 73.8457 153 72.8536Z" fill="#A00D25"/>
<path d="M49.5168 100.831L49.1248 99.1624C49.0576 98.8563 48.9307 98.636 48.744 98.5016C48.5648 98.3673 48.3334 98.3001 48.0496 98.3001H47.6577C47.6577 98.8003 47.6577 99.2819 47.6577 99.7448C47.6651 100.2 47.6726 100.648 47.6801 101.089L48.464 101.167V101.772H44.9138V101.167L45.7538 101.077C45.7687 100.622 45.7762 100.163 45.7762 99.7C45.7762 99.2371 45.7762 98.7704 45.7762 98.3001V97.8857C45.7762 97.4228 45.7762 96.9599 45.7762 96.497C45.7762 96.0341 45.7687 95.5712 45.7538 95.1082L44.9138 95.0187V94.4139H48.464V95.0187L47.6801 95.0971C47.6726 95.5152 47.6651 95.9407 47.6577 96.3738C47.6577 96.7993 47.6577 97.2324 47.6577 97.6729H47.96C48.184 97.6729 48.3782 97.643 48.5424 97.5833C48.7067 97.5236 48.856 97.3966 48.9904 97.2025C49.1248 97.0084 49.2554 96.7172 49.3824 96.329C49.6213 95.6197 49.8639 95.1045 50.1103 94.7835C50.3567 94.455 50.633 94.2608 50.9391 94.2011C51.5961 94.216 51.9246 94.5035 51.9246 95.0635C51.9246 95.2949 51.835 95.4965 51.6558 95.6682C51.4766 95.8325 51.1929 95.9146 50.8047 95.9146C50.618 95.9146 50.4426 95.8959 50.2783 95.8586C50.1663 96.0677 50.0581 96.3215 49.9535 96.6202C49.8266 96.9785 49.6847 97.266 49.528 97.4825C49.3712 97.6916 49.1733 97.8484 48.9344 97.9529C49.5989 98.035 50.1029 98.2254 50.4463 98.524C50.7972 98.8227 51.0324 99.2669 51.1519 99.8568L51.443 101.1L52.3054 101.167V101.772C52.0889 101.832 51.8798 101.873 51.6782 101.895C51.4841 101.917 51.3012 101.929 51.1295 101.929C50.6815 101.929 50.3231 101.861 50.0543 101.727C49.793 101.593 49.6138 101.294 49.5168 100.831ZM56.4633 96.8777V96.3626H59.3639V96.8777L58.7704 97.0009C58.7629 97.2772 58.7592 97.5721 58.7592 97.8857C58.7592 98.1993 58.7592 98.4755 58.7592 98.7144V99.42C58.7592 99.6589 58.7592 99.9352 58.7592 100.249C58.7592 100.555 58.7629 100.846 58.7704 101.122L59.3639 101.245V101.772H56.4633V101.245L57.1465 101.077V98.1881L54.9962 100.686V101.089L55.6794 101.245V101.772H52.6779V101.245L53.2715 101.122C53.279 100.846 53.2827 100.555 53.2827 100.249C53.2827 99.9352 53.2827 99.6589 53.2827 99.42V98.7144C53.2827 98.4755 53.2827 98.1993 53.2827 97.8857C53.2827 97.5721 53.279 97.2772 53.2715 97.0009L52.6779 96.8777V96.3626H55.6794V96.8777L54.9962 97.0345V99.8232L57.1465 97.3369V97.0457L56.4633 96.8777ZM59.8509 98.3897L59.8957 96.3626H65.5514L65.585 98.3897H64.8906L64.6106 96.9449H63.6251C63.6176 97.2212 63.6139 97.5236 63.6139 97.8521C63.6139 98.1806 63.6139 98.468 63.6139 98.7144V99.42C63.6139 99.6514 63.6139 99.924 63.6139 100.238C63.6139 100.544 63.6176 100.835 63.6251 101.111L64.2971 101.245V101.772H61.1389V101.245L61.8108 101.111C61.8183 100.835 61.822 100.544 61.822 100.238C61.822 99.924 61.822 99.6514 61.822 99.42V98.7144C61.822 98.468 61.822 98.1806 61.822 97.8521C61.822 97.5236 61.8183 97.2212 61.8108 96.9449H60.8253L60.5453 98.3897H59.8509ZM70.3329 101.929C69.6833 101.929 69.2727 101.66 69.101 101.122C68.862 101.376 68.6306 101.578 68.4066 101.727C68.1901 101.869 67.8877 101.94 67.4995 101.94C67.0664 101.94 66.7118 101.817 66.4355 101.57C66.1667 101.324 66.0324 100.969 66.0324 100.506C66.0324 100.238 66.0921 99.9949 66.2115 99.7784C66.331 99.5618 66.5475 99.3603 66.8611 99.1736C67.1747 98.987 67.6189 98.8115 68.1938 98.6472C68.3058 98.6099 68.4365 98.5726 68.5858 98.5352C68.7351 98.4979 68.8882 98.4606 69.045 98.4233V98.0537C69.045 97.5534 68.9815 97.2137 68.8546 97.0345C68.7351 96.8553 68.4962 96.7658 68.1378 96.7658C68.0856 96.7658 68.037 96.7658 67.9922 96.7658C67.9474 96.7658 67.8952 96.7695 67.8354 96.7769L67.7794 97.2697C67.772 97.6356 67.6861 97.9006 67.5219 98.0649C67.3651 98.2291 67.1784 98.3113 66.9619 98.3113C66.5513 98.3113 66.3011 98.1246 66.2115 97.7513C66.2414 97.2884 66.4766 96.9113 66.9171 96.6202C67.3576 96.329 67.981 96.1834 68.7874 96.1834C69.5041 96.1834 70.0156 96.3476 70.3217 96.6762C70.6353 97.0047 70.7921 97.546 70.7921 98.3001V100.809C70.7921 101.025 70.8742 101.133 71.0385 101.133C71.0982 101.133 71.1542 101.119 71.2064 101.089C71.2587 101.051 71.3147 100.984 71.3744 100.887L71.6768 101.089C71.5424 101.387 71.367 101.604 71.1504 101.738C70.9414 101.865 70.6689 101.929 70.3329 101.929ZM67.6899 100.215C67.6899 100.491 67.7533 100.697 67.8802 100.831C68.0146 100.965 68.1752 101.033 68.3618 101.033C68.4439 101.033 68.5298 101.014 68.6194 100.977C68.709 100.939 68.8509 100.854 69.045 100.719V98.9048C68.9479 98.9347 68.8509 98.9683 68.7538 99.0056C68.6642 99.0355 68.5858 99.0653 68.5186 99.0952C68.2648 99.1997 68.0632 99.3491 67.9138 99.5432C67.7645 99.7298 67.6899 99.9538 67.6899 100.215ZM75.6903 96.8777V96.3626H78.5909V96.8777L77.9973 97.0009C77.9899 97.2772 77.9861 97.5721 77.9861 97.8857C77.9861 98.1993 77.9861 98.4755 77.9861 98.7144V99.42C77.9861 99.6589 77.9861 99.9352 77.9861 100.249C77.9861 100.555 77.9899 100.846 77.9973 101.122L78.5909 101.245V101.772H75.6903V101.245L76.3734 101.077V98.1881L74.2232 100.686V101.089L74.9063 101.245V101.772H71.9049V101.245L72.4985 101.122C72.5059 100.846 72.5097 100.555 72.5097 100.249C72.5097 99.9352 72.5097 99.6589 72.5097 99.42V98.7144C72.5097 98.4755 72.5097 98.1993 72.5097 97.8857C72.5097 97.5721 72.5059 97.2772 72.4985 97.0009L71.9049 96.8777V96.3626H74.9063V96.8777L74.2232 97.0345V99.8232L76.3734 97.3369V97.0457L75.6903 96.8777ZM75.3095 95.6234C74.5704 95.6234 74.0291 95.4778 73.6856 95.1866C73.3496 94.888 73.1854 94.511 73.1928 94.0555C73.3198 93.6523 73.5811 93.4507 73.9768 93.4507C74.1933 93.4507 74.365 93.5142 74.492 93.6411C74.6263 93.7606 74.6935 93.9286 74.6935 94.1451C74.6935 94.3019 74.6525 94.4438 74.5704 94.5707C74.4957 94.6976 74.3912 94.8096 74.2568 94.9067C74.5405 95.0261 74.8914 95.0859 75.3095 95.0859C75.7276 95.0859 76.0785 95.0261 76.3622 94.9067C76.2279 94.8096 76.1196 94.6976 76.0375 94.5707C75.9628 94.4438 75.9255 94.3019 75.9255 94.1451C75.9255 93.9286 75.9927 93.7606 76.1271 93.6411C76.2615 93.5142 76.4332 93.4507 76.6422 93.4507C77.0454 93.4507 77.3067 93.6523 77.4262 94.0555C77.4336 94.511 77.2657 94.888 76.9222 95.1866C76.5862 95.4778 76.0487 95.6234 75.3095 95.6234ZM79.3777 99.4312V98.4233H82.2783V99.4312H79.3777ZM83.072 101.772V101.167L83.9119 101.077C83.9268 100.615 83.9343 100.148 83.9343 99.6776C83.9343 99.2072 83.9343 98.7331 83.9343 98.2553V97.9305C83.9343 97.4676 83.9343 97.0009 83.9343 96.5306C83.9343 96.0527 83.9268 95.5786 83.9119 95.1082L83.4751 95.0635L83.072 94.5371L83.9007 94.4587V94.4139H88.806L88.8396 96.497H87.9437L87.6861 95.0411H85.8046C85.7971 95.4517 85.7897 95.8586 85.7822 96.2618C85.7822 96.6575 85.7822 97.0345 85.7822 97.3929C86.0734 97.3705 86.372 97.3593 86.6781 97.3593C87.3501 97.3593 87.8914 97.4601 88.302 97.6617C88.7127 97.8633 89.0113 98.1283 89.198 98.4568C89.3921 98.7779 89.4892 99.1251 89.4892 99.4984C89.4892 99.7672 89.4406 100.036 89.3436 100.305C89.254 100.574 89.086 100.82 88.8396 101.044C88.6007 101.26 88.2647 101.436 87.8317 101.57C87.4061 101.705 86.8573 101.772 86.1854 101.772H83.072ZM85.7822 98.2553C85.7822 98.7331 85.7822 99.2109 85.7822 99.6888C85.7897 100.167 85.7971 100.644 85.8046 101.122H86.1294C86.5997 101.122 86.9693 100.992 87.2381 100.73C87.5069 100.469 87.6413 100.073 87.6413 99.5432C87.6413 99.0355 87.5218 98.6547 87.2829 98.4009C87.0515 98.1395 86.6669 98.0089 86.1294 98.0089C86.0696 98.0089 86.0099 98.0089 85.9502 98.0089C85.8979 98.0089 85.8419 98.0126 85.7822 98.0201V98.2553ZM93.8236 96.8777V96.3626H96.7242V96.8777L96.1306 97.0009C96.1232 97.2772 96.1194 97.5721 96.1194 97.8857C96.1194 98.1993 96.1194 98.4755 96.1194 98.7144V99.42C96.1194 99.6589 96.1194 99.9352 96.1194 100.249C96.1194 100.555 96.1232 100.846 96.1306 101.122L96.7242 101.245V101.772H93.8236V101.245L94.5067 101.077V98.1881L92.3565 100.686V101.089L93.0396 101.245V101.772H90.0382V101.245L90.6318 101.122C90.6392 100.846 90.643 100.555 90.643 100.249C90.643 99.9352 90.643 99.6589 90.643 99.42V98.7144C90.643 98.4755 90.643 98.1993 90.643 97.8857C90.643 97.5721 90.6392 97.2772 90.6318 97.0009L90.0382 96.8777V96.3626H93.0396V96.8777L92.3565 97.0345V99.8232L94.5067 97.3369V97.0457L93.8236 96.8777ZM103.603 96.8777V96.3626H106.426V96.8777L105.821 97.0009C105.813 97.2772 105.81 97.5721 105.81 97.8857C105.81 98.1993 105.81 98.4755 105.81 98.7144V99.42C105.81 99.6589 105.81 99.9352 105.81 100.249C105.81 100.555 105.813 100.846 105.821 101.122L106.426 101.245V101.772H97.3878V101.245L97.9813 101.122C97.9888 100.846 97.9925 100.555 97.9925 100.249C97.9925 99.9352 97.9925 99.6589 97.9925 99.42V98.7144C97.9925 98.4755 97.9925 98.1993 97.9925 97.8857C97.9925 97.5721 97.9888 97.2772 97.9813 97.0009L97.3878 96.8777V96.3626H100.199V96.8777L99.7172 96.9897C99.7098 97.266 99.706 97.5646 99.706 97.8857C99.706 98.1993 99.706 98.4755 99.706 98.7144V99.42C99.706 99.6664 99.706 99.9538 99.706 100.282C99.706 100.603 99.7098 100.902 99.7172 101.178H101.061C101.069 100.902 101.072 100.603 101.072 100.282C101.072 99.9538 101.072 99.6664 101.072 99.42V98.7144C101.072 98.4755 101.072 98.1993 101.072 97.8857C101.072 97.5646 101.069 97.266 101.061 96.9897L100.58 96.8777V96.3626H103.234V96.8777L102.741 96.9897C102.734 97.266 102.73 97.5646 102.73 97.8857C102.73 98.1993 102.73 98.4755 102.73 98.7144V99.42C102.73 99.6664 102.73 99.9538 102.73 100.282C102.73 100.603 102.734 100.902 102.741 101.178H104.096C104.104 100.902 104.107 100.603 104.107 100.282C104.107 99.9538 104.107 99.6664 104.107 99.42V98.7144C104.107 98.4755 104.107 98.1993 104.107 97.8857C104.107 97.5646 104.104 97.266 104.096 96.9897L103.603 96.8777ZM110.93 100.965L110.706 99.924C110.662 99.7074 110.572 99.5507 110.438 99.4536C110.303 99.3565 110.098 99.308 109.822 99.308H109.474C109.474 99.6066 109.474 99.9165 109.474 100.238C109.482 100.559 109.486 100.854 109.486 101.122L110.079 101.245V101.772H107.078V101.245L107.671 101.122C107.679 100.846 107.683 100.555 107.683 100.249C107.683 99.9352 107.683 99.6589 107.683 99.42V98.7144C107.683 98.4755 107.683 98.1993 107.683 97.8857C107.683 97.5721 107.679 97.2772 107.671 97.0009L107.078 96.8777V96.3626H110.079V96.8777L109.486 97.0009C109.486 97.2623 109.482 97.5497 109.474 97.8633C109.474 98.1694 109.474 98.4531 109.474 98.7144H109.889C110.12 98.7144 110.311 98.6584 110.46 98.5464C110.609 98.4345 110.751 98.1769 110.886 97.7737C111.057 97.2436 111.244 96.8665 111.446 96.6426C111.655 96.4186 111.938 96.2655 112.297 96.1834C112.558 96.2356 112.752 96.3364 112.879 96.4858C113.013 96.6351 113.081 96.8105 113.081 97.0121C113.081 97.266 112.991 97.4638 112.812 97.6057C112.64 97.7476 112.427 97.8185 112.174 97.8185C112.054 97.8185 111.942 97.811 111.838 97.7961C111.74 97.7812 111.643 97.7588 111.546 97.7289C111.502 97.8185 111.457 97.9193 111.412 98.0313C111.315 98.2777 111.207 98.4755 111.087 98.6248C110.968 98.7667 110.822 98.8824 110.65 98.972C111.203 99.0467 111.614 99.196 111.882 99.42C112.151 99.644 112.334 99.9538 112.431 100.35L112.633 101.156L113.249 101.257V101.772C113.114 101.802 112.961 101.832 112.789 101.861C112.625 101.891 112.446 101.906 112.252 101.906C111.901 101.906 111.61 101.843 111.378 101.716C111.154 101.581 111.005 101.331 110.93 100.965ZM116.264 96.7658C116.055 96.7658 115.861 96.8964 115.682 97.1577C115.51 97.4116 115.413 97.8819 115.39 98.5688H116.342C116.611 98.5688 116.79 98.5166 116.88 98.4121C116.977 98.3001 117.026 98.1171 117.026 97.8633C117.026 97.49 116.951 97.2137 116.802 97.0345C116.652 96.8553 116.473 96.7658 116.264 96.7658ZM116.286 101.94C115.741 101.94 115.26 101.828 114.842 101.604C114.424 101.372 114.095 101.044 113.856 100.618C113.617 100.185 113.498 99.6701 113.498 99.0728C113.498 98.4456 113.636 97.9193 113.912 97.4937C114.196 97.0607 114.558 96.7359 114.998 96.5194C115.439 96.2954 115.898 96.1834 116.376 96.1834C116.869 96.1834 117.287 96.2879 117.63 96.497C117.981 96.706 118.246 96.9897 118.425 97.3481C118.605 97.699 118.694 98.1022 118.694 98.5576C118.694 98.7742 118.672 98.972 118.627 99.1512H115.39C115.428 99.741 115.588 100.178 115.872 100.462C116.163 100.738 116.503 100.876 116.891 100.876C117.197 100.876 117.459 100.82 117.675 100.708C117.892 100.588 118.082 100.443 118.246 100.271L118.638 100.63C118.407 101.07 118.093 101.399 117.697 101.615C117.302 101.832 116.831 101.94 116.286 101.94ZM123.191 100.965L122.967 99.924C122.922 99.7074 122.832 99.5507 122.698 99.4536C122.563 99.3565 122.358 99.308 122.082 99.308H121.735C121.735 99.6066 121.735 99.9165 121.735 100.238C121.742 100.559 121.746 100.854 121.746 101.122L122.339 101.245V101.772H119.338V101.245L119.932 101.122C119.939 100.846 119.943 100.555 119.943 100.249C119.943 99.9352 119.943 99.6589 119.943 99.42V98.7144C119.943 98.4755 119.943 98.1993 119.943 97.8857C119.943 97.5721 119.939 97.2772 119.932 97.0009L119.338 96.8777V96.3626H122.339V96.8777L121.746 97.0009C121.746 97.2623 121.742 97.5497 121.735 97.8633C121.735 98.1694 121.735 98.4531 121.735 98.7144H122.149C122.38 98.7144 122.571 98.6584 122.72 98.5464C122.87 98.4345 123.011 98.1769 123.146 97.7737C123.318 97.2436 123.504 96.8665 123.706 96.6426C123.915 96.4186 124.199 96.2655 124.557 96.1834C124.818 96.2356 125.012 96.3364 125.139 96.4858C125.274 96.6351 125.341 96.8105 125.341 97.0121C125.341 97.266 125.251 97.4638 125.072 97.6057C124.9 97.7476 124.688 97.8185 124.434 97.8185C124.314 97.8185 124.202 97.811 124.098 97.7961C124.001 97.7812 123.904 97.7588 123.807 97.7289C123.762 97.8185 123.717 97.9193 123.672 98.0313C123.575 98.2777 123.467 98.4755 123.347 98.6248C123.228 98.7667 123.082 98.8824 122.911 98.972C123.463 99.0467 123.874 99.196 124.143 99.42C124.411 99.644 124.594 99.9538 124.691 100.35L124.893 101.156L125.509 101.257V101.772C125.374 101.802 125.221 101.832 125.05 101.861C124.885 101.891 124.706 101.906 124.512 101.906C124.161 101.906 123.87 101.843 123.639 101.716C123.415 101.581 123.265 101.331 123.191 100.965Z" fill="white"/>
</svg>
