<svg width="107" height="66" viewBox="0 0 107 66" fill="none" xmlns="http://www.w3.org/2000/svg">
<path d="M44.5008 0.970926C44.5533 1.75817 44.6845 1.94186 45.2356 2.02059C46.6264 2.20428 46.6788 2.54542 47.02 10.2604C47.2037 14.2229 47.4136 19.8386 47.4923 22.7514L47.676 28.0784H48.2796C48.9094 28.0784 48.9094 28.0521 48.9094 25.1131C48.9094 23.5124 48.7782 17.713 48.6469 12.2548C48.437 4.51353 48.3058 2.15179 47.9909 1.60072C47.571 0.760994 46.1803 -7.62939e-06 45.1043 -7.62939e-06C44.4746 -7.62939e-06 44.4221 0.0787163 44.5008 0.970926Z" fill="black"/>
<path d="M52.6357 2.99153C51.5598 3.20146 50.6675 3.4114 50.6151 3.46388C50.5626 3.51636 51.9009 3.56884 53.5803 3.56884C56.1258 3.59509 56.8868 3.67381 58.0939 4.1724C58.8811 4.4873 59.7209 4.90716 59.9308 5.09085C60.1407 5.27454 61.0329 5.5632 61.8989 5.74689C63.7358 6.14051 67.6195 7.34762 67.4883 7.47883C67.4359 7.53131 66.2812 7.34762 64.9167 7.05896C61.4003 6.35044 61.3216 6.37668 62.3712 7.66252C62.8961 8.31855 63.2635 8.42352 66.6749 8.92211C68.7217 9.21076 71.7132 9.78808 73.3664 10.2079C74.9934 10.6278 76.3842 10.8902 76.4629 10.8377C76.6991 10.6278 73.7863 8.08238 71.9231 6.87527C67.672 4.14616 63.5259 2.88657 58.0939 2.72912C55.7584 2.67663 53.8952 2.75536 52.6357 2.99153Z" fill="black"/>
<path d="M29.8318 11.6774C21.5657 15.7711 14.7954 19.1825 14.7954 19.2612C14.7954 19.34 15.3465 19.1825 16.055 18.9201C16.7373 18.6577 23.5863 16.086 31.2488 13.2257L45.2355 8.00364V6.08801C45.2355 5.06459 45.1568 4.19862 45.0519 4.22486C44.9207 4.22486 38.0716 7.58377 29.8318 11.6774Z" fill="black"/>
<path d="M54.63 9.97175C53.4229 10.0767 52.9505 10.2604 52.3995 10.8377L51.6647 11.5462L51.586 16.7421C51.5335 19.5761 51.5597 22.3053 51.6647 22.7514C51.7697 23.3024 52.1371 23.8535 52.6881 24.2734C53.5016 24.9032 53.764 24.9556 55.7584 24.8769C57.8839 24.7982 57.9102 24.7982 56.6506 24.5883C53.869 24.1684 53.5279 24.0372 52.8981 23.0925C52.2945 22.2003 52.2945 22.0691 52.3732 17.1094L52.452 12.0186L53.3179 11.2576C54.0002 10.6278 54.4201 10.4966 55.5485 10.4703C56.9393 10.4441 58.5662 10.0767 57.8315 9.94551C57.1229 9.84054 56.152 9.84054 54.63 9.97175Z" fill="black"/>
<path d="M62.8173 13.1732L64.0507 16.1385L67.3046 16.4534C70.7948 16.7945 75.0196 17.608 76.6466 18.2641C77.5913 18.6315 77.6175 18.6315 76.8041 18.5265C74.521 18.1591 70.165 17.818 69.2465 17.8967C68.3281 17.9754 68.538 18.0541 71.0834 18.7364C72.6841 19.1563 74.9409 19.8386 76.1218 20.2584C77.3026 20.652 79.9793 21.4131 82.0261 21.9379C84.0992 22.4627 85.9099 22.9875 86.0411 23.145C86.2247 23.3024 85.9886 23.3287 85.385 23.2237C83.6531 22.9088 78.6934 22.6464 78.4573 22.8563C77.9324 23.3287 78.5885 23.8273 79.9268 24.011C81.7899 24.2209 85.6737 24.9819 85.5687 25.0869C85.5425 25.1393 83.968 25.0869 82.1048 24.9557C79.0346 24.772 77.9062 24.8769 78.3523 25.3493C78.431 25.428 80.1367 25.7167 82.1048 25.9791C84.0729 26.2415 85.7262 26.5039 85.8049 26.5826C85.8836 26.6614 84.2829 26.6614 82.2623 26.5826L78.5622 26.4252V28.1309C78.5622 29.0756 78.7197 30.0203 78.9034 30.2827C79.1395 30.5976 80.1367 30.86 82.6297 31.2536C90.4234 32.4345 90.3971 32.4082 83.758 32.487L77.8012 32.5394L77.7225 33.5366L77.6438 34.5076L75.7544 34.5863C73.1827 34.6912 73.3139 35.1636 75.8856 35.1636C76.9877 35.1636 81.1077 35.3473 84.9914 35.5572C88.9014 35.7671 92.3915 35.9508 92.8114 35.9508H93.5199V33.143C93.5199 29.994 93.1525 28.8656 91.6043 27.2649C91.1319 26.7663 90.6071 25.8741 90.4234 25.2443C89.8986 23.5124 88.7439 22.4102 86.0673 21.1244C84.7552 20.4946 83.207 19.8386 82.6034 19.6811C81.6325 19.3925 81.475 19.2088 80.7928 17.608C80.2942 16.4797 79.5594 15.4038 78.6672 14.4853C77.2764 13.0945 76.4892 12.7009 76.8565 13.5668C76.9615 13.8293 77.119 14.2754 77.1714 14.5903C77.3026 15.1151 77.2239 15.1413 75.7544 14.9314C74.9147 14.8264 72.2905 14.4853 69.9025 14.1704C67.5146 13.8817 65.3365 13.5931 65.0479 13.5144C64.7592 13.4619 64.0769 12.7009 63.5259 11.8087C62.8961 10.7852 62.3712 10.2342 62.0563 10.2342C61.6102 10.2342 61.689 10.5491 62.8173 13.1732Z" fill="black"/>
<path d="M42.2178 11.7299C40.6433 12.3597 36.8645 13.908 33.8205 15.1413C28.8609 17.1357 25.0034 18.7102 17.4196 21.8329C16.055 22.384 15.294 22.7776 15.7139 22.7251C16.6586 22.5677 44.9731 14.5115 45.1568 14.3541C45.2093 14.2753 45.2355 13.4094 45.1831 12.386L45.1043 10.5491L42.2178 11.7299Z" fill="black"/>
<path d="M56.5456 15.1938C56.2832 15.3775 56.1783 15.8499 56.2045 16.7158C56.257 17.8967 56.2307 17.9229 55.8896 17.3456C55.6272 16.847 55.5222 16.8208 55.391 17.1357C55.2073 17.608 55.5747 19.0513 55.9946 19.5499C56.152 19.7598 56.6506 19.996 57.0705 20.0747C57.4903 20.1797 57.8315 20.3371 57.8315 20.4684C57.8315 20.9407 59.406 21.3343 60.2719 21.0457L61.1117 20.7833L60.062 20.757C58.3825 20.7045 58.1726 20.4421 58.7499 19.13C59.5372 17.4243 59.1698 15.8236 57.9102 15.2463C57.1492 14.9052 57.018 14.9052 56.5456 15.1938Z" fill="black"/>
<path d="M29.7006 22.384C21.5132 25.1656 14.8479 27.4486 14.9004 27.4748C14.9529 27.5536 17.1309 27.1074 26.0793 25.1918C35.2113 23.2499 43.8448 21.4393 44.527 21.3081C45.2355 21.2031 45.2355 21.1769 45.2355 19.2612C45.2355 17.8704 45.1306 17.3194 44.9207 17.3456C44.737 17.3719 37.8879 19.6286 29.7006 22.384Z" fill="black"/>
<path d="M41.5617 24.1422C39.6199 24.667 32.9021 26.5039 26.6566 28.2096C20.4373 29.9153 15.3727 31.3586 15.4252 31.4373C15.5039 31.4898 16.7635 31.3586 18.2593 31.1224C19.7551 30.8862 22.1693 30.5188 23.665 30.3089C25.1346 30.099 27.4963 29.7316 28.9133 29.5217C30.3041 29.3117 34.5028 28.6819 38.2553 28.1046C42.6639 27.4223 45.1306 26.95 45.2618 26.7138C45.5504 26.294 45.5767 23.4336 45.3143 23.2762C45.1831 23.1975 43.5036 23.5911 41.5617 24.1422Z" fill="black"/>
<path d="M65.5727 23.5386L63.9982 23.9585L65.4415 24.2734C68.1444 24.8244 69.7713 26.189 70.821 28.7607L71.4508 30.3089L74.2062 30.3876C75.7544 30.4139 76.9878 30.3876 76.9878 30.2827C76.9878 30.2039 76.6466 29.3905 76.2267 28.4982C74.5735 25.0606 72.2118 23.3287 69.0103 23.1975C67.8557 23.145 66.5436 23.2762 65.5727 23.5386Z" fill="black"/>
<path d="M56.3882 28.472C52.1371 29.0231 42.7426 30.1777 39.2 30.5713C33.873 31.1486 15.7664 33.3529 15.1366 33.4841C14.6117 33.5891 14.533 33.7728 14.533 34.77V35.9508L36.917 35.8984L59.2747 35.8196L59.3535 33.7728C59.406 32.4607 59.3272 31.7522 59.1435 31.7522C58.8286 31.7522 58.7237 32.0146 58.4875 33.3792L58.3301 34.3763L53.4229 34.3501C48.7519 34.2976 48.5945 34.2976 50.4838 34.009L52.452 33.7203L49.4079 33.6416L46.3377 33.5629L45.9178 32.4607C45.3143 30.8862 45.3668 30.755 46.6263 30.5976C48.1746 30.3876 58.9861 29.128 59.2223 29.128C59.3272 29.128 59.406 28.8919 59.406 28.6032C59.406 28.3146 59.3272 28.1046 59.2223 28.1046C59.0911 28.1309 57.8315 28.2883 56.3882 28.472Z" fill="black"/>
<path d="M63.1585 28.8656C61.5315 29.8628 60.0358 33.6416 60.5868 35.3998C60.7443 35.9246 60.9017 35.9508 64.7855 35.9508H68.8529L69.0103 35.2686C69.3252 34.009 68.9579 31.3061 68.3281 30.3089C67.1472 28.4195 64.9167 27.7897 63.1585 28.8656ZM66.8848 29.994C68.1444 31.2536 68.7479 33.6416 67.882 33.9565C67.3309 34.1664 67.1734 33.9827 66.7798 32.5394C66.3862 31.2011 64.9691 29.6529 64.1294 29.6529C63.8408 29.6529 63.6571 29.5217 63.7358 29.3905C63.8145 29.233 64.3656 29.128 64.9691 29.128C65.8089 29.128 66.2025 29.3117 66.8848 29.994Z" fill="black"/>
<path d="M0.362605 33.9827C0.178915 34.1927 0.10019 34.6388 0.205156 35.0061C0.467571 36.082 2.09454 36.1083 2.35696 35.0061C2.56689 34.2189 2.0683 33.5891 1.28106 33.5891C0.96616 33.5891 0.546296 33.7728 0.362605 33.9827Z" fill="black"/>
<path d="M4.82366 33.9827C4.37755 34.5338 4.69245 35.5834 5.37473 35.7671C6.16198 35.9771 6.63432 35.7147 6.81801 35.0061C7.02794 34.2189 6.52936 33.5891 5.74211 33.5891C5.42721 33.5891 5.00735 33.7728 4.82366 33.9827Z" fill="black"/>
<path d="M9.28471 33.9827C9.10102 34.1927 9.0223 34.6388 9.12726 35.0061C9.38968 36.082 11.0166 36.1083 11.2791 35.0061C11.489 34.2189 10.9904 33.5891 10.2032 33.5891C9.88827 33.5891 9.4684 33.7728 9.28471 33.9827Z" fill="black"/>
<path d="M95.8816 33.9827C95.6979 34.1927 95.6192 34.6388 95.7242 35.0061C95.9866 36.082 97.6136 36.1083 97.876 35.0061C98.0859 34.2189 97.5873 33.5891 96.8001 33.5891C96.4852 33.5891 96.0653 33.7728 95.8816 33.9827Z" fill="black"/>
<path d="M100.343 33.9827C100.159 34.1927 100.08 34.6388 100.185 35.0061C100.448 36.082 102.075 36.1083 102.337 35.0061C102.547 34.2189 102.048 33.5891 101.261 33.5891C100.946 33.5891 100.526 33.7728 100.343 33.9827Z" fill="black"/>
<path d="M104.804 33.9827C104.62 34.1927 104.541 34.6388 104.646 35.0061C104.909 36.082 106.536 36.1083 106.798 35.0061C107.008 34.2189 106.509 33.5891 105.722 33.5891C105.407 33.5891 104.987 33.7728 104.804 33.9827Z" fill="black"/>
<path d="M10.6227 50.0501V41.2712H16.5382V42.8015H12.4788V44.8934H16.2339V46.4237H12.4788V48.5198H16.5554V50.0501H10.6227ZM25.3568 41.2712V50.0501H23.7537L19.9343 44.5247H19.87V50.0501H18.0139V41.2712H19.6428L23.4322 46.7923H23.5093V41.2712H25.3568ZM31.6528 43.796C31.6185 43.4502 31.4713 43.1816 31.2113 42.9901C30.9512 42.7986 30.5983 42.7029 30.1525 42.7029C29.8496 42.7029 29.5938 42.7458 29.3852 42.8315C29.1766 42.9144 29.0165 43.0301 28.9051 43.1787C28.7965 43.3273 28.7422 43.4959 28.7422 43.6845C28.7365 43.8417 28.7693 43.9789 28.8408 44.096C28.9151 44.2132 29.0165 44.3147 29.1451 44.4004C29.2737 44.4833 29.4223 44.5561 29.5909 44.619C29.7595 44.679 29.9396 44.7305 30.1311 44.7733L30.9198 44.9619C31.3027 45.0477 31.6542 45.162 31.9743 45.3049C32.2944 45.4478 32.5716 45.6235 32.8059 45.8321C33.0402 46.0407 33.2217 46.2865 33.3503 46.5694C33.4817 46.8523 33.5489 47.1767 33.5518 47.5425C33.5489 48.0797 33.4117 48.5455 33.1402 48.9399C32.8716 49.3314 32.483 49.6358 31.9743 49.853C31.4685 50.0673 30.8583 50.1745 30.1439 50.1745C29.4352 50.1745 28.8179 50.0659 28.2921 49.8487C27.7691 49.6315 27.3605 49.31 27.0661 48.8842C26.7746 48.4555 26.6217 47.9254 26.6075 47.2939H28.4035C28.4236 47.5882 28.5079 47.834 28.6565 48.0311C28.8079 48.2255 29.0094 48.3726 29.2609 48.4727C29.5152 48.5698 29.8024 48.6184 30.1225 48.6184C30.4368 48.6184 30.7097 48.5727 30.9412 48.4812C31.1756 48.3898 31.357 48.2626 31.4856 48.0997C31.6142 47.9368 31.6785 47.7497 31.6785 47.5382C31.6785 47.341 31.6199 47.1753 31.5028 47.0409C31.3885 46.9066 31.2198 46.7923 30.9969 46.698C30.7769 46.6037 30.5068 46.518 30.1868 46.4408L29.2309 46.2008C28.4907 46.0207 27.9063 45.7392 27.4776 45.3563C27.049 44.9734 26.8361 44.4575 26.8389 43.8088C26.8361 43.2773 26.9775 42.8129 27.2633 42.4157C27.5519 42.0185 27.9477 41.7084 28.4507 41.4855C28.9537 41.2626 29.5252 41.1511 30.1653 41.1511C30.8169 41.1511 31.3856 41.2626 31.8714 41.4855C32.3601 41.7084 32.7402 42.0185 33.0116 42.4157C33.2831 42.8129 33.4232 43.273 33.4317 43.796H31.6528ZM36.113 50.0501H34.124L37.1547 41.2712H39.5466L42.5729 50.0501H40.5839L38.3849 43.2773H38.3163L36.113 50.0501ZM35.9887 46.5994H40.6868V48.0483H35.9887V46.5994ZM43.6296 50.0501V41.2712H47.0932C47.7561 41.2712 48.322 41.3898 48.7906 41.627C49.2622 41.8613 49.6208 42.1942 49.8666 42.6257C50.1152 43.0544 50.2395 43.5588 50.2395 44.1389C50.2395 44.7219 50.1138 45.2234 49.8623 45.6435C49.6108 46.0607 49.2465 46.3808 48.7692 46.6037C48.2948 46.8266 47.7204 46.9381 47.046 46.9381H44.7269V45.4463H46.7459C47.1003 45.4463 47.3946 45.3977 47.629 45.3006C47.8633 45.2034 48.0376 45.0577 48.1519 44.8633C48.2691 44.669 48.3277 44.4275 48.3277 44.1389C48.3277 43.8474 48.2691 43.6017 48.1519 43.4016C48.0376 43.2016 47.8619 43.0501 47.6247 42.9472C47.3904 42.8415 47.0946 42.7886 46.7374 42.7886H45.4857V50.0501H43.6296ZM48.3706 46.055L50.5524 50.0501H48.5034L46.3687 46.055H48.3706ZM52.5843 50.1616C52.3014 50.1616 52.0585 50.0616 51.8556 49.8615C51.6555 49.6586 51.5555 49.4157 51.5555 49.1328C51.5555 48.8527 51.6555 48.6127 51.8556 48.4127C52.0585 48.2126 52.3014 48.1126 52.5843 48.1126C52.8586 48.1126 53.0987 48.2126 53.3044 48.4127C53.5102 48.6127 53.6131 48.8527 53.6131 49.1328C53.6131 49.3214 53.5645 49.4943 53.4673 49.6515C53.373 49.8058 53.2487 49.9301 53.0944 50.0244C52.9401 50.1159 52.77 50.1616 52.5843 50.1616ZM55.1466 50.0501V41.2712H57.0027V45.142H57.1185L60.2777 41.2712H62.5024L59.2446 45.202L62.541 50.0501H60.3205L57.9158 46.4408L57.0027 47.5553V50.0501H55.1466ZM64.9822 50.0501H62.9932L66.0239 41.2712H68.4158L71.4422 50.0501H69.4532L67.2541 43.2773H67.1856L64.9822 50.0501ZM64.8579 46.5994H69.556V48.0483H64.8579V46.5994ZM72.4988 50.0501V41.2712H75.9624C76.6254 41.2712 77.1912 41.3898 77.6599 41.627C78.1314 41.8613 78.49 42.1942 78.7358 42.6257C78.9844 43.0544 79.1087 43.5588 79.1087 44.1389C79.1087 44.7219 78.983 45.2234 78.7315 45.6435C78.48 46.0607 78.1157 46.3808 77.6384 46.6037C77.1641 46.8266 76.5897 46.9381 75.9152 46.9381H73.5962V45.4463H75.6152C75.9695 45.4463 76.2639 45.3977 76.4982 45.3006C76.7325 45.2034 76.9069 45.0577 77.0212 44.8633C77.1383 44.669 77.1969 44.4275 77.1969 44.1389C77.1969 43.8474 77.1383 43.6017 77.0212 43.4016C76.9069 43.2016 76.7311 43.0501 76.4939 42.9472C76.2596 42.8415 75.9638 42.7886 75.6066 42.7886H74.3549V50.0501H72.4988ZM77.2398 46.055L79.4217 50.0501H77.3727L75.2379 46.055H77.2398ZM86.2417 44.1089C86.1816 43.9003 86.0973 43.716 85.9888 43.5559C85.8802 43.393 85.7473 43.2559 85.5901 43.1444C85.4358 43.0301 85.2586 42.9429 85.0586 42.8829C84.8614 42.8229 84.6428 42.7929 84.4027 42.7929C83.954 42.7929 83.5597 42.9044 83.2196 43.1273C82.8824 43.3502 82.6195 43.6745 82.4309 44.1003C82.2423 44.5233 82.148 45.0405 82.148 45.6521C82.148 46.2636 82.2408 46.7837 82.4266 47.2124C82.6123 47.6411 82.8752 47.9683 83.2153 48.194C83.5554 48.4169 83.9569 48.5284 84.4199 48.5284C84.8399 48.5284 85.1986 48.4541 85.4958 48.3055C85.7959 48.154 86.0245 47.9411 86.1816 47.6668C86.3417 47.3924 86.4217 47.0681 86.4217 46.6937L86.7989 46.7495H84.5356V45.352H88.2092V46.458C88.2092 47.2296 88.0463 47.8925 87.7205 48.4469C87.3948 48.9985 86.9461 49.4243 86.3745 49.7244C85.803 50.0216 85.1486 50.1702 84.4113 50.1702C83.5883 50.1702 82.8652 49.9887 82.2423 49.6258C81.6193 49.26 81.1335 48.7413 80.7848 48.0697C80.439 47.3953 80.2661 46.5951 80.2661 45.6692C80.2661 44.9577 80.369 44.3232 80.5748 43.766C80.7834 43.2059 81.0749 42.7315 81.4492 42.3428C81.8236 41.9542 82.2594 41.6584 82.7566 41.4555C83.2539 41.2526 83.7926 41.1511 84.3727 41.1511C84.8699 41.1511 85.3329 41.224 85.7616 41.3698C86.1902 41.5126 86.5703 41.7155 86.9018 41.9785C87.2362 42.2414 87.5091 42.5543 87.7205 42.9172C87.932 43.2773 88.0678 43.6745 88.1278 44.1089H86.2417ZM97.6708 45.6607C97.6708 46.618 97.4894 47.4325 97.1264 48.104C96.7664 48.7756 96.2748 49.2886 95.6518 49.6429C95.0317 49.9944 94.3344 50.1702 93.56 50.1702C92.7798 50.1702 92.0797 49.993 91.4595 49.6386C90.8394 49.2843 90.3493 48.7713 89.9892 48.0997C89.6292 47.4282 89.4491 46.6151 89.4491 45.6607C89.4491 44.7033 89.6292 43.8889 89.9892 43.2173C90.3493 42.5457 90.8394 42.0342 91.4595 41.6827C92.0797 41.3283 92.7798 41.1511 93.56 41.1511C94.3344 41.1511 95.0317 41.3283 95.6518 41.6827C96.2748 42.0342 96.7664 42.5457 97.1264 43.2173C97.4894 43.8889 97.6708 44.7033 97.6708 45.6607ZM95.789 45.6607C95.789 45.0405 95.6961 44.5176 95.5104 44.0918C95.3275 43.666 95.0689 43.343 94.7345 43.123C94.4001 42.9029 94.0086 42.7929 93.56 42.7929C93.1113 42.7929 92.7198 42.9029 92.3854 43.123C92.0511 43.343 91.791 43.666 91.6053 44.0918C91.4224 44.5176 91.3309 45.0405 91.3309 45.6607C91.3309 46.2808 91.4224 46.8038 91.6053 47.2296C91.791 47.6554 92.0511 47.9783 92.3854 48.1983C92.7198 48.4184 93.1113 48.5284 93.56 48.5284C94.0086 48.5284 94.4001 48.4184 94.7345 48.1983C95.0689 47.9783 95.3275 47.6554 95.5104 47.2296C95.6961 46.8038 95.789 46.2808 95.789 45.6607Z" fill="#A00D25"/>
<path d="M31.108 63.7729L30.863 62.7299C30.821 62.5386 30.7417 62.4009 30.625 62.3169C30.513 62.2329 30.3683 62.1909 30.191 62.1909H29.946C29.946 62.5036 29.946 62.8046 29.946 63.0939C29.9507 63.3786 29.9553 63.6586 29.96 63.9339L30.45 63.9829V64.3609H28.231V63.9829L28.756 63.9269C28.7653 63.6422 28.77 63.3552 28.77 63.0659C28.77 62.7766 28.77 62.4849 28.77 62.1909V61.9319C28.77 61.6426 28.77 61.3532 28.77 61.0639C28.77 60.7746 28.7653 60.4852 28.756 60.1959L28.231 60.1399V59.7619H30.45V60.1399L29.96 60.1889C29.9553 60.4502 29.9507 60.7162 29.946 60.9869C29.946 61.2529 29.946 61.5236 29.946 61.7989H30.135C30.275 61.7989 30.3963 61.7802 30.499 61.7429C30.6017 61.7056 30.695 61.6262 30.779 61.5049C30.863 61.3836 30.9447 61.2016 31.024 60.9589C31.1733 60.5156 31.325 60.1936 31.479 59.9929C31.633 59.7876 31.8057 59.6662 31.997 59.6289C32.4077 59.6382 32.613 59.8179 32.613 60.1679C32.613 60.3126 32.557 60.4386 32.445 60.5459C32.333 60.6486 32.1557 60.6999 31.913 60.6999C31.7963 60.6999 31.6867 60.6882 31.584 60.6649C31.514 60.7956 31.4463 60.9542 31.381 61.1409C31.3017 61.3649 31.213 61.5446 31.115 61.6799C31.017 61.8106 30.8933 61.9086 30.744 61.9739C31.1593 62.0252 31.4743 62.1442 31.689 62.3309C31.9083 62.5176 32.0553 62.7952 32.13 63.1639L32.312 63.9409L32.851 63.9829V64.3609C32.7157 64.3982 32.585 64.4239 32.459 64.4379C32.3377 64.4519 32.2233 64.4589 32.116 64.4589C31.836 64.4589 31.612 64.4169 31.444 64.3329C31.2807 64.2489 31.1687 64.0622 31.108 63.7729ZM35.4499 61.3019V60.9799H37.2629V61.3019L36.8919 61.3789C36.8872 61.5516 36.8849 61.7359 36.8849 61.9319C36.8849 62.1279 36.8849 62.3006 36.8849 62.4499V62.8909C36.8849 63.0402 36.8849 63.2129 36.8849 63.4089C36.8849 63.6002 36.8872 63.7822 36.8919 63.9549L37.2629 64.0319V64.3609H35.4499V64.0319L35.8769 63.9269V62.1209L34.5329 63.6819V63.9339L34.9599 64.0319V64.3609H33.0839V64.0319L33.4549 63.9549C33.4595 63.7822 33.4619 63.6002 33.4619 63.4089C33.4619 63.2129 33.4619 63.0402 33.4619 62.8909V62.4499C33.4619 62.3006 33.4619 62.1279 33.4619 61.9319C33.4619 61.7359 33.4595 61.5516 33.4549 61.3789L33.0839 61.3019V60.9799H34.9599V61.3019L34.5329 61.3999V63.1429L35.8769 61.5889V61.4069L35.4499 61.3019ZM37.5672 62.2469L37.5952 60.9799H41.1302L41.1512 62.2469H40.7172L40.5422 61.3439H39.9262C39.9216 61.5166 39.9192 61.7056 39.9192 61.9109C39.9192 62.1162 39.9192 62.2959 39.9192 62.4499V62.8909C39.9192 63.0356 39.9192 63.2059 39.9192 63.4019C39.9192 63.5932 39.9216 63.7752 39.9262 63.9479L40.3462 64.0319V64.3609H38.3722V64.0319L38.7922 63.9479C38.7969 63.7752 38.7992 63.5932 38.7992 63.4019C38.7992 63.2059 38.7992 63.0356 38.7992 62.8909V62.4499C38.7992 62.2959 38.7992 62.1162 38.7992 61.9109C38.7992 61.7056 38.7969 61.5166 38.7922 61.3439H38.1762L38.0012 62.2469H37.5672ZM44.1189 64.4589C43.7129 64.4589 43.4562 64.2909 43.3489 63.9549C43.1995 64.1136 43.0549 64.2396 42.9149 64.3329C42.7795 64.4216 42.5905 64.4659 42.3479 64.4659C42.0772 64.4659 41.8555 64.3889 41.6829 64.2349C41.5149 64.0809 41.4309 63.8592 41.4309 63.5699C41.4309 63.4019 41.4682 63.2502 41.5429 63.1149C41.6175 62.9796 41.7529 62.8536 41.9489 62.7369C42.1449 62.6202 42.4225 62.5106 42.7819 62.4079C42.8519 62.3846 42.9335 62.3612 43.0269 62.3379C43.1202 62.3146 43.2159 62.2912 43.3139 62.2679V62.0369C43.3139 61.7242 43.2742 61.5119 43.1949 61.3999C43.1202 61.2879 42.9709 61.2319 42.7469 61.2319C42.7142 61.2319 42.6839 61.2319 42.6559 61.2319C42.6279 61.2319 42.5952 61.2342 42.5579 61.2389L42.5229 61.5469C42.5182 61.7756 42.4645 61.9412 42.3619 62.0439C42.2639 62.1466 42.1472 62.1979 42.0119 62.1979C41.7552 62.1979 41.5989 62.0812 41.5429 61.8479C41.5615 61.5586 41.7085 61.3229 41.9839 61.1409C42.2592 60.9589 42.6489 60.8679 43.1529 60.8679C43.6009 60.8679 43.9205 60.9706 44.1119 61.1759C44.3079 61.3812 44.4059 61.7196 44.4059 62.1909V63.7589C44.4059 63.8942 44.4572 63.9619 44.5599 63.9619C44.5972 63.9619 44.6322 63.9526 44.6649 63.9339C44.6975 63.9106 44.7325 63.8686 44.7699 63.8079L44.9589 63.9339C44.8749 64.1206 44.7652 64.2559 44.6299 64.3399C44.4992 64.4192 44.3289 64.4589 44.1189 64.4589ZM42.4669 63.3879C42.4669 63.5606 42.5065 63.6889 42.5859 63.7729C42.6699 63.8569 42.7702 63.8989 42.8869 63.8989C42.9382 63.8989 42.9919 63.8872 43.0479 63.8639C43.1039 63.8406 43.1925 63.7869 43.3139 63.7029V62.5689C43.2532 62.5876 43.1925 62.6086 43.1319 62.6319C43.0759 62.6506 43.0269 62.6692 42.9849 62.6879C42.8262 62.7532 42.7002 62.8466 42.6069 62.9679C42.5135 63.0846 42.4669 63.2246 42.4669 63.3879ZM47.4674 61.3019V60.9799H49.2804V61.3019L48.9094 61.3789C48.9048 61.5516 48.9024 61.7359 48.9024 61.9319C48.9024 62.1279 48.9024 62.3006 48.9024 62.4499V62.8909C48.9024 63.0402 48.9024 63.2129 48.9024 63.4089C48.9024 63.6002 48.9048 63.7822 48.9094 63.9549L49.2804 64.0319V64.3609H47.4674V64.0319L47.8944 63.9269V62.1209L46.5504 63.6819V63.9339L46.9774 64.0319V64.3609H45.1014V64.0319L45.4724 63.9549C45.4771 63.7822 45.4794 63.6002 45.4794 63.4089C45.4794 63.2129 45.4794 63.0402 45.4794 62.8909V62.4499C45.4794 62.3006 45.4794 62.1279 45.4794 61.9319C45.4794 61.7359 45.4771 61.5516 45.4724 61.3789L45.1014 61.3019V60.9799H46.9774V61.3019L46.5504 61.3999V63.1429L47.8944 61.5889V61.4069L47.4674 61.3019ZM47.2294 60.5179C46.7674 60.5179 46.4291 60.4269 46.2144 60.2449C46.0044 60.0582 45.9018 59.8226 45.9064 59.5379C45.9858 59.2859 46.1491 59.1599 46.3964 59.1599C46.5318 59.1599 46.6391 59.1996 46.7184 59.2789C46.8024 59.3536 46.8444 59.4586 46.8444 59.5939C46.8444 59.6919 46.8188 59.7806 46.7674 59.8599C46.7208 59.9392 46.6554 60.0092 46.5714 60.0699C46.7488 60.1446 46.9681 60.1819 47.2294 60.1819C47.4908 60.1819 47.7101 60.1446 47.8874 60.0699C47.8034 60.0092 47.7358 59.9392 47.6844 59.8599C47.6378 59.7806 47.6144 59.6919 47.6144 59.5939C47.6144 59.4586 47.6564 59.3536 47.7404 59.2789C47.8244 59.1996 47.9318 59.1599 48.0624 59.1599C48.3144 59.1599 48.4778 59.2859 48.5524 59.5379C48.5571 59.8226 48.4521 60.0582 48.2374 60.2449C48.0274 60.4269 47.6914 60.5179 47.2294 60.5179ZM49.7722 62.8979V62.2679H51.5852V62.8979H49.7722ZM52.0813 64.3609V63.9829L52.6063 63.9269C52.6156 63.6376 52.6203 63.3459 52.6203 63.0519C52.6203 62.7579 52.6203 62.4616 52.6203 62.1629V61.9599C52.6203 61.6706 52.6203 61.3789 52.6203 61.0849C52.6203 60.7862 52.6156 60.4899 52.6063 60.1959L52.3333 60.1679L52.0813 59.8389L52.5993 59.7899V59.7619H55.6653L55.6863 61.0639H55.1263L54.9653 60.1539H53.7893C53.7846 60.4106 53.7799 60.6649 53.7753 60.9169C53.7753 61.1642 53.7753 61.3999 53.7753 61.6239C53.9573 61.6099 54.1439 61.6029 54.3353 61.6029C54.7553 61.6029 55.0936 61.6659 55.3503 61.7919C55.6069 61.9179 55.7936 62.0836 55.9103 62.2889C56.0316 62.4896 56.0923 62.7066 56.0923 62.9399C56.0923 63.1079 56.0619 63.2759 56.0013 63.4439C55.9453 63.6119 55.8403 63.7659 55.6863 63.9059C55.5369 64.0412 55.3269 64.1509 55.0563 64.2349C54.7903 64.3189 54.4473 64.3609 54.0273 64.3609H52.0813ZM53.7753 62.1629C53.7753 62.4616 53.7753 62.7602 53.7753 63.0589C53.7799 63.3576 53.7846 63.6562 53.7893 63.9549H53.9923C54.2863 63.9549 54.5173 63.8732 54.6853 63.7099C54.8533 63.5466 54.9373 63.2992 54.9373 62.9679C54.9373 62.6506 54.8626 62.4126 54.7133 62.2539C54.5686 62.0906 54.3283 62.0089 53.9923 62.0089C53.9549 62.0089 53.9176 62.0089 53.8803 62.0089C53.8476 62.0089 53.8126 62.0112 53.7753 62.0159V62.1629ZM58.8014 61.3019V60.9799H60.6144V61.3019L60.2434 61.3789C60.2388 61.5516 60.2364 61.7359 60.2364 61.9319C60.2364 62.1279 60.2364 62.3006 60.2364 62.4499V62.8909C60.2364 63.0402 60.2364 63.2129 60.2364 63.4089C60.2364 63.6002 60.2388 63.7822 60.2434 63.9549L60.6144 64.0319V64.3609H58.8014V64.0319L59.2284 63.9269V62.1209L57.8844 63.6819V63.9339L58.3114 64.0319V64.3609H56.4354V64.0319L56.8064 63.9549C56.8111 63.7822 56.8134 63.6002 56.8134 63.4089C56.8134 63.2129 56.8134 63.0402 56.8134 62.8909V62.4499C56.8134 62.3006 56.8134 62.1279 56.8134 61.9319C56.8134 61.7359 56.8111 61.5516 56.8064 61.3789L56.4354 61.3019V60.9799H58.3114V61.3019L57.8844 61.3999V63.1429L59.2284 61.5889V61.4069L58.8014 61.3019ZM64.9142 61.3019V60.9799H66.6782V61.3019L66.3002 61.3789C66.2955 61.5516 66.2932 61.7359 66.2932 61.9319C66.2932 62.1279 66.2932 62.3006 66.2932 62.4499V62.8909C66.2932 63.0402 66.2932 63.2129 66.2932 63.4089C66.2932 63.6002 66.2955 63.7822 66.3002 63.9549L66.6782 64.0319V64.3609H61.0292V64.0319L61.4002 63.9549C61.4048 63.7822 61.4072 63.6002 61.4072 63.4089C61.4072 63.2129 61.4072 63.0402 61.4072 62.8909V62.4499C61.4072 62.3006 61.4072 62.1279 61.4072 61.9319C61.4072 61.7359 61.4048 61.5516 61.4002 61.3789L61.0292 61.3019V60.9799H62.7862V61.3019L62.4852 61.3719C62.4805 61.5446 62.4782 61.7312 62.4782 61.9319C62.4782 62.1279 62.4782 62.3006 62.4782 62.4499V62.8909C62.4782 63.0449 62.4782 63.2246 62.4782 63.4299C62.4782 63.6306 62.4805 63.8172 62.4852 63.9899H63.3252C63.3298 63.8172 63.3322 63.6306 63.3322 63.4299C63.3322 63.2246 63.3322 63.0449 63.3322 62.8909V62.4499C63.3322 62.3006 63.3322 62.1279 63.3322 61.9319C63.3322 61.7312 63.3298 61.5446 63.3252 61.3719L63.0242 61.3019V60.9799H64.6832V61.3019L64.3752 61.3719C64.3705 61.5446 64.3682 61.7312 64.3682 61.9319C64.3682 62.1279 64.3682 62.3006 64.3682 62.4499V62.8909C64.3682 63.0449 64.3682 63.2246 64.3682 63.4299C64.3682 63.6306 64.3705 63.8172 64.3752 63.9899H65.2222C65.2268 63.8172 65.2292 63.6306 65.2292 63.4299C65.2292 63.2246 65.2292 63.0449 65.2292 62.8909V62.4499C65.2292 62.3006 65.2292 62.1279 65.2292 61.9319C65.2292 61.7312 65.2268 61.5446 65.2222 61.3719L64.9142 61.3019ZM69.4938 63.8569L69.3538 63.2059C69.3258 63.0706 69.2698 62.9726 69.1858 62.9119C69.1018 62.8512 68.9735 62.8209 68.8008 62.8209H68.5838C68.5838 63.0076 68.5838 63.2012 68.5838 63.4019C68.5885 63.6026 68.5908 63.7869 68.5908 63.9549L68.9618 64.0319V64.3609H67.0858V64.0319L67.4568 63.9549C67.4615 63.7822 67.4638 63.6002 67.4638 63.4089C67.4638 63.2129 67.4638 63.0402 67.4638 62.8909V62.4499C67.4638 62.3006 67.4638 62.1279 67.4638 61.9319C67.4638 61.7359 67.4615 61.5516 67.4568 61.3789L67.0858 61.3019V60.9799H68.9618V61.3019L68.5908 61.3789C68.5908 61.5422 68.5885 61.7219 68.5838 61.9179C68.5838 62.1092 68.5838 62.2866 68.5838 62.4499H68.8428C68.9875 62.4499 69.1065 62.4149 69.1998 62.3449C69.2931 62.2749 69.3818 62.1139 69.4658 61.8619C69.5731 61.5306 69.6898 61.2949 69.8158 61.1549C69.9465 61.0149 70.1238 60.9192 70.3478 60.8679C70.5111 60.9006 70.6325 60.9636 70.7118 61.0569C70.7958 61.1502 70.8378 61.2599 70.8378 61.3859C70.8378 61.5446 70.7818 61.6682 70.6698 61.7569C70.5625 61.8456 70.4295 61.8899 70.2708 61.8899C70.1961 61.8899 70.1261 61.8852 70.0608 61.8759C70.0001 61.8666 69.9395 61.8526 69.8788 61.8339C69.8508 61.8899 69.8228 61.9529 69.7948 62.0229C69.7341 62.1769 69.6665 62.3006 69.5918 62.3939C69.5171 62.4826 69.4261 62.5549 69.3188 62.6109C69.6641 62.6576 69.9208 62.7509 70.0888 62.8909C70.2568 63.0309 70.3711 63.2246 70.4318 63.4719L70.5578 63.9759L70.9428 64.0389V64.3609C70.8588 64.3796 70.7631 64.3982 70.6558 64.4169C70.5531 64.4356 70.4411 64.4449 70.3198 64.4449C70.1005 64.4449 69.9185 64.4052 69.7738 64.3259C69.6338 64.2419 69.5405 64.0856 69.4938 63.8569ZM72.8275 61.2319C72.6968 61.2319 72.5755 61.3136 72.4635 61.4769C72.3562 61.6356 72.2955 61.9296 72.2815 62.3589H72.8765C73.0445 62.3589 73.1565 62.3262 73.2125 62.2609C73.2732 62.1909 73.3035 62.0766 73.3035 61.9179C73.3035 61.6846 73.2568 61.5119 73.1635 61.3999C73.0702 61.2879 72.9582 61.2319 72.8275 61.2319ZM72.8415 64.4659C72.5008 64.4659 72.1998 64.3959 71.9385 64.2559C71.6772 64.1112 71.4718 63.9059 71.3225 63.6399C71.1732 63.3692 71.0985 63.0472 71.0985 62.6739C71.0985 62.2819 71.1848 61.9529 71.3575 61.6869C71.5348 61.4162 71.7612 61.2132 72.0365 61.0779C72.3118 60.9379 72.5988 60.8679 72.8975 60.8679C73.2055 60.8679 73.4668 60.9332 73.6815 61.0639C73.9008 61.1946 74.0665 61.3719 74.1785 61.5959C74.2905 61.8152 74.3465 62.0672 74.3465 62.3519C74.3465 62.4872 74.3325 62.6109 74.3045 62.7229H72.2815C72.3048 63.0916 72.4052 63.3646 72.5825 63.5419C72.7645 63.7146 72.9768 63.8009 73.2195 63.8009C73.4108 63.8009 73.5742 63.7659 73.7095 63.6959C73.8448 63.6212 73.9638 63.5302 74.0665 63.4229L74.3115 63.6469C74.1668 63.9222 73.9708 64.1276 73.7235 64.2629C73.4762 64.3982 73.1822 64.4659 72.8415 64.4659ZM77.1569 63.8569L77.0169 63.2059C76.9889 63.0706 76.9329 62.9726 76.8489 62.9119C76.7649 62.8512 76.6366 62.8209 76.4639 62.8209H76.2469C76.2469 63.0076 76.2469 63.2012 76.2469 63.4019C76.2516 63.6026 76.2539 63.7869 76.2539 63.9549L76.6249 64.0319V64.3609H74.7489V64.0319L75.1199 63.9549C75.1246 63.7822 75.1269 63.6002 75.1269 63.4089C75.1269 63.2129 75.1269 63.0402 75.1269 62.8909V62.4499C75.1269 62.3006 75.1269 62.1279 75.1269 61.9319C75.1269 61.7359 75.1246 61.5516 75.1199 61.3789L74.7489 61.3019V60.9799H76.6249V61.3019L76.2539 61.3789C76.2539 61.5422 76.2516 61.7219 76.2469 61.9179C76.2469 62.1092 76.2469 62.2866 76.2469 62.4499H76.5059C76.6506 62.4499 76.7696 62.4149 76.8629 62.3449C76.9562 62.2749 77.0449 62.1139 77.1289 61.8619C77.2362 61.5306 77.3529 61.2949 77.4789 61.1549C77.6096 61.0149 77.7869 60.9192 78.0109 60.8679C78.1742 60.9006 78.2956 60.9636 78.3749 61.0569C78.4589 61.1502 78.5009 61.2599 78.5009 61.3859C78.5009 61.5446 78.4449 61.6682 78.3329 61.7569C78.2256 61.8456 78.0926 61.8899 77.9339 61.8899C77.8592 61.8899 77.7892 61.8852 77.7239 61.8759C77.6632 61.8666 77.6026 61.8526 77.5419 61.8339C77.5139 61.8899 77.4859 61.9529 77.4579 62.0229C77.3972 62.1769 77.3296 62.3006 77.2549 62.3939C77.1802 62.4826 77.0892 62.5549 76.9819 62.6109C77.3272 62.6576 77.5839 62.7509 77.7519 62.8909C77.9199 63.0309 78.0342 63.2246 78.0949 63.4719L78.2209 63.9759L78.6059 64.0389V64.3609C78.5219 64.3796 78.4262 64.3982 78.3189 64.4169C78.2162 64.4356 78.1042 64.4449 77.9829 64.4449C77.7636 64.4449 77.5816 64.4052 77.4369 64.3259C77.2969 64.2419 77.2036 64.0856 77.1569 63.8569Z" fill="black"/>
</svg>
