<svg width="40" height="40" viewBox="0 0 40 40" fill="none" xmlns="http://www.w3.org/2000/svg">
<rect width="40" height="40" rx="10" fill="white"/>
<path d="M10.8004 19.4524C12.7413 18.3833 14.9079 17.491 16.9323 16.5942C20.4149 15.1252 23.9115 13.6817 27.4433 12.3378C28.1304 12.1088 29.3651 11.8849 29.4862 12.9032C29.4198 14.3446 29.1471 15.7777 28.9601 17.2107C28.4853 20.362 27.9366 23.5025 27.4015 26.6434C27.2171 27.6897 25.9065 28.2312 25.0679 27.5617C23.0525 26.2004 21.0216 24.8523 19.032 23.4594C18.3803 22.7972 18.9846 21.8461 19.5667 21.3732C21.2266 19.7374 22.987 18.3476 24.5602 16.6272C24.9845 15.6025 23.7307 16.4661 23.3171 16.7307C21.0447 18.2967 18.8278 19.9582 16.432 21.3345C15.2082 22.0082 13.7818 21.4325 12.5586 21.0566C11.4618 20.6025 9.85458 20.1449 10.8003 19.4526L10.8004 19.4524Z" fill="#A00D25"/>
</svg>
