<svg width="40" height="40" viewBox="0 0 40 40" fill="none" xmlns="http://www.w3.org/2000/svg">
<rect width="40" height="40" rx="10" fill="white"/>
<g clip-path="url(#clip0_2_809)">
<path d="M18.3398 10.0234C16.7617 10.1249 14.875 10.3867 14.2812 10.5898C12.7266 11.121 11.168 12.6601 10.6094 14.2187C10.4414 14.6835 10.2422 15.9101 10.0898 17.4218C9.98828 18.4101 9.98828 21.5898 10.0898 22.5781C10.2422 24.0898 10.4414 25.3163 10.6094 25.7812C11.082 27.0976 12.3477 28.4921 13.6719 29.1601C14.3672 29.5117 15.2773 29.6913 17.4609 29.9101C18.3281 29.996 21.4609 30.0077 22.3242 29.9296C23.7031 29.8007 25.1875 29.5859 25.625 29.4492C26.0117 29.332 26.6953 28.9765 27.1094 28.6796C27.5859 28.3398 28.3477 27.582 28.6797 27.1093C29.2305 26.332 29.4688 25.7382 29.625 24.7851C29.9141 22.9921 29.9805 22.1015 29.9805 19.9999C29.9805 18.1913 29.9609 17.8124 29.8008 16.4843C29.5703 14.539 29.3984 13.9609 28.793 13.0624C28.0273 11.9218 26.8789 10.996 25.7422 10.5937C25.2812 10.4335 24.1484 10.2538 22.5781 10.0937C22.0039 10.0351 18.9609 9.98431 18.3398 10.0234ZM23.5273 13.9179C24.2227 14.1327 24.7227 14.4492 25.2188 14.9726C25.8242 15.6171 26.1328 16.3202 26.2109 17.246C26.2617 17.8163 26.2617 22.246 26.2109 22.7929C26.1641 23.332 26.0586 23.7109 25.8398 24.1601C25.418 25.0156 24.6641 25.6874 23.7617 26.0117C23.1602 26.2304 23.1562 26.2304 19.9805 26.2304C16.7461 26.2304 16.8086 26.2343 16.1445 25.9765C15.2891 25.6484 14.5664 24.9843 14.1602 24.1601C13.9414 23.7109 13.8359 23.332 13.7891 22.7929C13.7383 22.2382 13.7383 17.8163 13.7891 17.2226C13.8672 16.2734 14.2461 15.4765 14.9258 14.8202C15.4648 14.3046 16.0156 14.0117 16.7617 13.8476C16.9648 13.8046 17.5742 13.7968 20.0977 13.8007L23.1836 13.8085L23.5273 13.9179Z" fill="#A00D25"/>
<path d="M16.8437 15.078C15.9804 15.3046 15.2578 16.035 15.0586 16.8788C14.9726 17.2538 14.9726 22.7499 15.0625 23.1249C15.2656 23.9882 15.9844 24.7186 16.8554 24.9413C17.0508 24.9921 17.5273 24.9999 20 24.9999C22.8242 24.9999 22.9219 24.996 23.2031 24.9178C23.6445 24.7968 23.9258 24.6288 24.2773 24.2772C24.6289 23.9296 24.8359 23.5702 24.9375 23.1249C25.0273 22.746 25.0312 17.2421 24.9414 16.8944C24.7304 16.0624 24.1015 15.3866 23.2812 15.1053C23.0273 15.0194 23.0117 15.0194 20.0781 15.0116C17.2695 15.0038 17.1133 15.0077 16.8437 15.078ZM23.5859 16.0897C24.1719 16.3905 24.164 17.1678 23.5781 17.4686C23.3594 17.578 23.0312 17.5546 22.8242 17.41C22.3281 17.0663 22.3984 16.3163 22.9492 16.0702C23.1211 15.996 23.4179 16.0038 23.5859 16.0897ZM20.7578 16.8944C21.7109 17.1483 22.4414 17.7421 22.8867 18.621C23.1172 19.078 23.1836 19.4061 23.1797 20.0389C23.1797 20.5663 23.1719 20.6288 23.0547 20.9764C22.7734 21.828 22.1797 22.5077 21.3945 22.8905C20.0664 23.5311 18.414 23.1639 17.5273 22.035C15.9804 20.0663 17.0429 17.2811 19.5078 16.8358C19.7812 16.7889 20.4765 16.8202 20.7578 16.8944Z" fill="#A00D25"/>
<path d="M19.543 18.0663C18.668 18.2577 18.0078 19.0897 18.0078 19.9999C18.0078 20.5428 18.207 21.0233 18.5898 21.41C18.9922 21.8124 19.4258 21.9881 20 21.9921C21.1133 21.996 21.9922 21.1131 21.9922 19.9999C21.9922 19.0741 21.3359 18.2538 20.4414 18.0663C20.1172 17.996 19.8633 17.996 19.543 18.0663Z" fill="#A00D25"/>
</g>
<defs>
<clipPath id="clip0_2_809">
<rect width="20" height="20" fill="white" transform="translate(10 10)"/>
</clipPath>
</defs>
</svg>
